<svg id="svg" version="1.1" xmlns="http://www.w3.org/2000/svg" xmlns:xlink="http://www.w3.org/1999/xlink" width="400" height="456.3380281690141" viewBox="0, 0, 400,456.3380281690141"><g id="svgg"><path id="path0" d="M251.428 18.355 C 251.307 18.550,251.477 18.932,251.804 19.204 C 253.409 20.536,252.043 24.744,249.600 25.991 C 248.271 26.669,243.028 26.720,146.200 26.990 C 35.473 27.299,42.674 27.141,38.800 29.350 C 28.321 35.327,26.532 39.393,26.077 58.281 C 25.803 69.629,25.735 70.429,24.956 71.481 C 23.770 73.082,21.714 74.372,19.884 74.665 L 18.304 74.918 18.488 78.096 C 18.612 80.231,18.857 81.391,19.236 81.631 C 19.861 82.026,380.426 82.143,381.900 81.748 L 382.800 81.507 382.800 62.743 C 382.800 43.019,382.522 39.719,380.599 36.609 C 373.917 25.803,366.424 19.672,358.372 18.423 C 354.965 17.894,251.753 17.828,251.428 18.355 M345.087 30.411 C 365.715 36.669,366.679 63.196,346.562 71.037 C 330.730 77.208,313.379 59.788,319.226 43.592 C 323.095 32.873,334.328 27.148,345.087 30.411 M289.938 30.252 C 303.539 34.170,308.668 45.569,303.522 60.441 C 299.514 72.024,280.864 76.184,271.930 67.487 C 271.638 67.203,270.703 66.445,269.852 65.801 C 264.405 61.686,261.720 51.059,264.276 43.730 C 267.839 33.512,279.676 27.295,289.938 30.252 M112.691 41.274 C 117.326 43.436,119.932 51.028,117.605 55.590 C 112.828 64.954,99.790 63.420,98.361 53.326 C 96.985 43.609,104.374 37.394,112.691 41.274 M50.573 40.841 C 55.086 42.094,58.414 48.595,57.012 53.418 C 53.940 63.986,40.843 64.797,37.456 54.629 C 36.754 52.518,36.569 48.590,37.156 48.227 C 37.351 48.106,37.623 47.562,37.760 47.018 C 39.019 42.002,44.769 39.230,50.573 40.841 M83.089 42.270 C 91.510 49.408,87.358 61.876,76.600 61.758 C 68.984 61.675,64.798 52.769,68.824 45.215 C 71.596 40.015,78.698 38.549,83.089 42.270 M144.066 41.796 C 153.029 47.728,149.171 61.793,138.600 61.721 C 127.889 61.647,124.199 47.537,133.392 41.805 C 136.132 40.096,141.490 40.091,144.066 41.796 M154.800 160.627 C 154.800 161.098,157.005 163.977,157.600 164.284 C 157.930 164.454,178.000 164.690,202.200 164.809 C 249.439 165.042,247.902 164.969,250.707 167.109 C 254.500 170.002,254.245 174.666,250.198 176.401 C 248.509 177.125,246.416 177.162,199.718 177.298 L 151.000 177.440 148.279 178.475 C 146.782 179.044,145.432 179.635,145.279 179.790 C 145.125 179.944,144.460 180.331,143.800 180.648 C 135.229 184.775,130.309 189.973,128.133 197.200 C 127.476 199.383,127.099 227.805,126.856 293.469 L 126.800 308.738 125.489 310.457 C 122.437 314.458,118.240 313.298,116.238 307.900 C 115.622 306.238,115.390 306.000,114.385 306.000 C 112.729 306.000,112.644 306.938,112.973 321.561 C 113.322 337.104,113.579 338.276,118.263 345.702 C 120.486 349.225,128.365 356.486,130.758 357.216 C 131.551 357.458,132.560 357.814,133.000 358.008 C 140.058 361.118,141.295 361.175,202.040 361.188 C 261.131 361.201,258.992 361.279,260.361 359.062 C 260.883 358.218,262.253 357.214,264.472 356.051 C 274.798 350.636,282.049 343.647,286.725 334.600 C 287.294 333.500,287.948 332.472,288.180 332.315 C 288.471 332.117,288.600 311.679,288.600 265.915 L 288.600 199.800 287.699 196.620 C 283.366 181.330,272.800 169.327,259.000 164.017 C 257.680 163.509,256.240 162.947,255.800 162.768 C 255.360 162.590,253.560 162.029,251.800 161.522 L 248.600 160.600 201.700 160.490 C 175.905 160.430,154.800 160.491,154.800 160.627 M180.105 182.100 C 184.463 184.536,184.320 190.017,179.852 191.811 C 177.450 192.775,166.646 192.844,164.932 191.906 C 161.106 189.813,160.892 184.101,164.570 182.265 C 166.187 181.458,178.719 181.325,180.105 182.100 M143.373 185.363 C 147.989 187.291,147.847 191.017,142.932 196.938 C 142.011 198.048,140.325 201.364,139.835 203.030 C 139.103 205.518,135.384 207.113,132.905 206.002 C 129.276 204.378,128.543 199.872,131.213 195.600 C 131.419 195.270,131.843 194.460,132.154 193.800 C 134.936 187.905,140.123 184.005,143.373 185.363 M167.600 227.608 C 180.544 232.470,181.499 249.733,169.158 255.745 C 153.898 263.178,139.747 243.221,151.853 231.341 C 156.297 226.981,162.203 225.581,167.600 227.608 M243.828 227.645 C 250.261 230.052,254.796 239.118,252.821 245.621 C 248.972 258.294,234.664 261.606,226.066 251.814 C 215.829 240.155,229.078 222.126,243.828 227.645 M184.797 265.399 C 185.410 265.715,186.869 267.179,188.041 268.651 C 193.141 275.061,200.775 276.866,207.697 273.297 C 209.451 272.393,213.600 268.704,213.600 268.049 C 213.600 267.893,214.475 267.097,215.543 266.282 C 222.899 260.673,231.440 269.372,227.258 278.213 C 217.534 298.768,184.544 299.379,173.993 279.200 C 169.726 271.040,177.213 261.477,184.797 265.399 M283.166 316.376 C 285.935 318.347,285.283 322.567,281.190 329.174 C 280.205 330.763,278.433 333.624,277.251 335.532 C 273.081 342.259,265.716 347.671,258.070 349.623 C 252.806 350.967,249.193 345.091,253.105 341.548 C 254.206 340.551,255.149 340.058,259.200 338.361 C 260.410 337.854,261.684 337.205,262.031 336.920 C 262.379 336.634,262.799 336.400,262.965 336.400 C 265.884 336.400,274.184 326.003,275.418 320.800 C 276.669 315.528,279.614 313.847,283.166 316.376 " stroke="none" fill="#f99006" fill-rule="evenodd"></path><path id="path1" d="M36.000 0.400 C 36.000 0.620,34.991 0.800,33.757 0.800 C 31.928 0.800,31.557 0.911,31.745 1.400 C 31.913 1.839,31.683 2.008,30.887 2.031 C 29.057 2.082,28.275 2.324,27.928 2.944 C 27.745 3.270,27.058 3.655,26.402 3.800 C 25.746 3.944,25.106 4.228,24.981 4.431 C 24.855 4.634,24.207 4.800,23.539 4.800 C 22.662 4.800,22.267 5.022,22.116 5.600 C 22.000 6.043,21.570 6.400,21.153 6.400 C 20.739 6.400,20.400 6.670,20.400 7.000 C 20.400 7.404,19.996 7.600,19.163 7.600 C 18.262 7.600,17.868 7.817,17.716 8.400 C 17.601 8.840,17.279 9.200,17.000 9.200 C 16.721 9.200,16.399 9.561,16.284 10.002 C 16.144 10.536,15.862 10.722,15.437 10.559 C 14.979 10.383,14.800 10.551,14.800 11.157 C 14.800 11.621,14.575 12.003,14.300 12.007 C 13.714 12.015,12.000 13.731,12.000 14.310 C 12.000 14.528,11.617 14.807,11.148 14.929 C 10.579 15.078,10.376 15.359,10.535 15.776 C 10.702 16.211,10.536 16.400,9.987 16.400 C 9.354 16.400,9.200 16.674,9.200 17.800 C 9.200 18.933,9.048 19.200,8.400 19.200 C 7.882 19.200,7.600 19.467,7.600 19.957 C 7.600 20.374,7.330 20.818,7.000 20.945 C 6.670 21.071,6.400 21.610,6.400 22.141 C 6.400 22.770,6.121 23.180,5.600 23.316 C 5.017 23.468,4.800 23.862,4.800 24.763 C 4.800 25.596,4.604 26.000,4.200 26.000 C 3.781 26.000,3.600 26.422,3.600 27.400 C 3.600 28.378,3.419 28.800,3.000 28.800 C 2.670 28.800,2.373 29.025,2.339 29.300 C 2.306 29.575,2.236 29.980,2.185 30.200 C 2.134 30.420,2.072 31.185,2.046 31.900 C 2.015 32.768,1.801 33.200,1.400 33.200 C 0.924 33.200,0.800 33.778,0.800 36.000 C 0.800 37.600,0.629 38.800,0.400 38.800 C 0.134 38.800,0.000 102.133,0.000 228.000 C 0.000 353.867,0.134 417.200,0.400 417.200 C 0.620 417.200,0.800 418.190,0.800 419.400 C 0.800 421.089,0.939 421.600,1.400 421.600 C 1.853 421.600,2.000 422.089,2.000 423.600 C 2.000 425.333,2.107 425.600,2.800 425.600 C 3.448 425.600,3.600 425.867,3.600 427.000 C 3.600 427.978,3.781 428.400,4.200 428.400 C 4.619 428.400,4.800 428.822,4.800 429.800 C 4.800 430.933,4.952 431.200,5.600 431.200 C 6.133 431.200,6.400 431.467,6.400 432.000 C 6.400 432.444,6.667 432.800,7.000 432.800 C 7.563 432.800,7.789 433.503,7.623 434.731 C 7.583 435.023,7.922 435.359,8.375 435.478 C 9.003 435.642,9.200 436.016,9.200 437.047 C 9.200 438.126,9.359 438.400,9.987 438.400 C 10.501 438.400,10.700 438.596,10.559 438.964 C 10.428 439.303,10.673 439.633,11.171 439.791 C 11.627 439.936,12.000 440.312,12.000 440.627 C 12.000 440.942,12.249 441.200,12.553 441.200 C 12.858 441.200,13.201 441.560,13.316 442.000 C 13.431 442.440,13.812 442.800,14.163 442.800 C 14.513 442.800,14.800 443.070,14.800 443.400 C 14.800 443.730,15.087 444.000,15.437 444.000 C 15.788 444.000,16.169 444.360,16.284 444.800 C 16.399 445.240,16.742 445.600,17.047 445.600 C 17.351 445.600,17.600 445.870,17.600 446.200 C 17.600 446.533,17.956 446.800,18.400 446.800 C 18.840 446.800,19.200 447.051,19.200 447.357 C 19.200 447.969,20.041 448.400,21.233 448.400 C 21.655 448.400,22.000 448.670,22.000 449.000 C 22.000 449.419,22.422 449.600,23.400 449.600 C 24.533 449.600,24.800 449.752,24.800 450.400 C 24.800 450.840,24.935 451.179,25.100 451.153 C 26.345 450.956,27.600 451.281,27.600 451.800 C 27.600 452.219,28.022 452.400,29.000 452.400 C 30.133 452.400,30.400 452.552,30.400 453.200 C 30.400 453.640,30.535 453.979,30.700 453.953 C 31.945 453.756,33.200 454.081,33.200 454.600 C 33.200 455.076,33.778 455.200,36.000 455.200 C 37.600 455.200,38.800 455.371,38.800 455.600 C 38.800 455.866,93.267 456.000,201.400 456.000 C 309.533 456.000,364.000 455.866,364.000 455.600 C 364.000 455.380,364.990 455.200,366.200 455.200 C 367.889 455.200,368.400 455.061,368.400 454.600 C 368.400 454.184,368.819 454.000,369.767 454.000 C 371.529 454.000,372.400 453.655,372.400 452.957 C 372.400 452.587,372.870 452.400,373.800 452.400 C 374.778 452.400,375.200 452.219,375.200 451.800 C 375.200 451.259,375.675 451.022,376.500 451.153 C 376.665 451.179,376.800 450.840,376.800 450.400 C 376.800 449.752,377.067 449.600,378.200 449.600 C 379.178 449.600,379.600 449.419,379.600 449.000 C 379.600 448.449,380.283 448.217,381.470 448.363 C 381.728 448.395,382.055 448.056,382.197 447.611 C 382.338 447.165,382.712 446.800,383.027 446.800 C 383.342 446.800,383.600 446.530,383.600 446.200 C 383.600 445.863,383.957 445.600,384.416 445.600 C 384.864 445.600,385.958 444.880,386.847 444.000 C 387.736 443.120,388.615 442.400,388.800 442.400 C 388.985 442.400,389.252 441.875,389.393 441.233 C 389.534 440.592,389.908 439.967,390.224 439.846 C 390.541 439.724,390.800 439.349,390.800 439.013 C 390.800 438.667,391.148 438.400,391.600 438.400 C 392.133 438.400,392.400 438.133,392.400 437.600 C 392.400 437.156,392.667 436.800,393.000 436.800 C 393.419 436.800,393.600 436.378,393.600 435.400 C 393.600 434.267,393.752 434.000,394.400 434.000 C 395.048 434.000,395.200 433.733,395.200 432.600 C 395.200 431.622,395.381 431.200,395.800 431.200 C 396.219 431.200,396.400 430.778,396.400 429.800 C 396.400 428.667,396.552 428.400,397.200 428.400 C 397.848 428.400,398.000 428.133,398.000 427.000 C 398.000 426.022,398.181 425.600,398.600 425.600 C 399.019 425.600,399.200 425.178,399.200 424.200 C 399.200 423.430,399.380 422.800,399.600 422.800 C 399.866 422.800,400.000 357.333,400.000 227.200 C 400.000 97.067,399.866 31.600,399.600 31.600 C 399.380 31.600,399.200 31.255,399.200 30.833 C 399.200 29.798,398.779 28.765,398.443 28.973 C 398.205 29.121,398.004 28.207,397.898 26.494 C 397.879 26.190,397.575 26.081,397.133 26.221 C 396.515 26.417,396.400 26.228,396.400 25.014 C 396.400 24.104,396.180 23.490,395.800 23.345 C 395.452 23.211,395.200 22.613,395.200 21.920 C 395.200 21.062,394.975 20.666,394.400 20.516 C 393.806 20.361,393.600 19.970,393.600 19.000 C 393.600 18.009,393.397 17.640,392.760 17.474 C 392.298 17.353,392.030 17.075,392.166 16.856 C 392.301 16.637,392.049 16.343,391.606 16.202 C 391.163 16.061,390.800 15.709,390.800 15.420 C 390.800 15.130,390.435 14.798,389.989 14.681 C 389.542 14.564,389.227 14.228,389.289 13.934 C 389.351 13.635,389.092 13.424,388.700 13.456 C 388.261 13.490,388.000 13.230,388.000 12.756 C 388.000 12.340,387.751 12.000,387.447 12.000 C 387.142 12.000,386.794 11.622,386.674 11.160 C 386.553 10.698,386.271 10.433,386.047 10.571 C 385.823 10.709,385.445 10.457,385.206 10.011 C 384.967 9.565,384.508 9.200,384.186 9.200 C 383.864 9.200,383.600 8.840,383.600 8.400 C 383.600 7.956,383.333 7.600,383.000 7.600 C 382.670 7.600,382.400 7.330,382.400 7.000 C 382.400 6.583,381.981 6.400,381.027 6.400 C 379.999 6.400,379.589 6.196,379.397 5.589 C 379.255 5.144,378.928 4.805,378.670 4.837 C 377.483 4.983,376.800 4.751,376.800 4.200 C 376.800 3.781,376.378 3.600,375.400 3.600 C 374.422 3.600,374.000 3.419,374.000 3.000 C 374.000 2.670,373.775 2.373,373.500 2.339 C 373.225 2.306,372.820 2.236,372.600 2.185 C 372.380 2.134,371.615 2.072,370.900 2.046 C 370.032 2.015,369.600 1.801,369.600 1.400 C 369.600 0.947,369.111 0.800,367.600 0.800 C 366.500 0.800,365.600 0.620,365.600 0.400 C 365.600 0.134,310.400 0.000,200.800 0.000 C 91.200 0.000,36.000 0.134,36.000 0.400 M296.200 17.527 C 365.388 18.116,360.055 17.888,364.400 20.448 C 364.730 20.643,365.423 20.984,365.940 21.206 C 369.337 22.667,375.657 28.288,377.206 31.225 C 377.488 31.761,377.843 32.290,377.993 32.400 C 378.756 32.959,381.227 37.848,381.869 40.068 C 382.525 42.340,382.611 44.600,382.707 62.051 L 382.815 81.503 381.907 81.746 C 379.457 82.403,19.307 82.011,18.760 81.351 C 17.873 80.283,17.671 42.542,18.542 40.796 C 18.892 40.094,19.292 38.914,19.431 38.174 C 19.570 37.434,19.935 36.620,20.242 36.365 C 20.549 36.110,20.800 35.742,20.800 35.547 C 20.800 35.352,21.430 34.295,22.200 33.200 C 22.970 32.105,23.600 31.024,23.600 30.798 C 23.600 30.264,30.264 23.600,30.798 23.600 C 31.024 23.600,32.105 22.970,33.200 22.200 C 34.295 21.430,35.442 20.800,35.747 20.800 C 36.052 20.800,36.526 20.530,36.800 20.200 C 37.074 19.870,37.596 19.600,37.960 19.600 C 38.324 19.600,39.011 19.327,39.487 18.994 C 40.670 18.165,43.868 17.535,48.400 17.238 C 54.299 16.850,242.494 17.070,296.200 17.527 M279.400 30.271 C 273.606 31.995,268.467 35.911,265.713 40.700 C 263.447 44.641,262.676 52.255,264.144 56.200 C 265.280 59.254,266.560 62.000,266.846 62.000 C 266.987 62.000,267.312 62.495,267.567 63.100 C 268.115 64.398,274.707 69.676,277.472 71.030 C 281.344 72.927,289.918 72.367,294.000 69.950 C 294.330 69.755,294.870 69.476,295.200 69.330 C 296.158 68.908,299.668 65.981,301.270 64.269 C 303.572 61.809,305.889 53.881,305.501 49.791 C 305.244 47.084,304.099 42.079,303.385 40.540 C 303.063 39.846,302.800 39.119,302.800 38.923 C 302.800 38.727,302.035 37.840,301.100 36.951 C 294.805 30.971,286.079 28.285,279.400 30.271 M333.200 30.297 C 332.430 30.652,330.990 31.316,330.000 31.771 C 329.010 32.227,328.020 32.740,327.800 32.911 C 327.580 33.082,326.320 34.041,325.000 35.042 C 310.572 45.984,320.700 72.158,339.344 72.111 C 356.377 72.069,366.326 54.801,357.987 39.755 C 356.513 37.097,354.176 35.044,349.282 32.112 C 345.292 29.720,336.581 28.737,333.200 30.297 M286.572 42.091 C 292.807 46.999,294.000 48.488,294.000 51.361 C 294.000 54.118,293.259 55.236,290.000 57.390 C 289.010 58.044,287.210 59.324,286.000 60.233 C 282.437 62.911,280.141 63.069,278.428 60.752 C 276.530 58.185,276.780 56.865,279.744 53.813 C 282.600 50.871,282.631 50.683,280.589 48.800 C 277.391 45.851,276.839 43.187,278.983 41.043 C 281.247 38.779,282.602 38.966,286.572 42.091 M336.920 41.432 C 337.096 41.744,337.424 42.000,337.649 42.000 C 337.874 42.000,339.292 42.945,340.799 44.100 C 342.307 45.255,344.250 46.690,345.119 47.289 C 348.529 49.642,347.878 52.905,343.479 55.500 C 342.647 55.991,340.738 57.385,339.239 58.597 C 335.007 62.016,332.506 61.526,332.090 57.198 C 331.900 55.221,334.426 51.600,335.994 51.600 C 336.984 51.600,336.236 50.152,334.361 48.437 C 331.604 45.916,331.190 43.549,333.160 41.578 C 334.497 40.242,336.212 40.175,336.920 41.432 M42.594 41.644 C 40.635 42.681,39.600 43.569,39.600 44.213 C 39.600 44.482,39.353 44.907,39.052 45.157 C 36.564 47.222,36.656 53.584,39.228 57.400 C 45.418 66.582,59.523 59.054,56.570 48.144 C 54.891 41.943,48.045 38.759,42.594 41.644 M72.400 41.639 C 64.160 46.559,67.303 61.660,76.551 61.587 C 86.482 61.508,90.833 50.412,83.722 43.301 C 80.969 40.548,75.558 39.753,72.400 41.639 M102.331 42.119 C 97.690 45.654,97.088 55.193,101.261 59.073 C 109.144 66.403,121.734 56.724,117.227 46.800 C 114.525 40.851,107.071 38.508,102.331 42.119 M134.011 41.843 C 122.779 48.022,130.032 65.099,142.105 60.900 C 147.254 59.109,150.523 52.127,148.238 47.800 C 147.890 47.140,147.604 46.446,147.602 46.258 C 147.597 45.477,145.064 42.796,143.422 41.834 C 140.961 40.392,136.642 40.396,134.011 41.843 M383.155 100.146 C 383.491 100.551,383.581 140.967,383.504 256.646 L 383.400 412.600 382.444 415.300 C 381.918 416.785,381.347 418.000,381.176 418.000 C 381.004 418.000,380.748 418.528,380.606 419.172 C 380.464 419.817,380.090 420.559,379.774 420.821 C 379.458 421.083,379.200 421.448,379.200 421.631 C 379.200 422.510,376.178 426.219,373.230 428.956 C 372.257 429.860,371.173 430.874,370.821 431.210 C 369.809 432.173,365.055 435.200,364.552 435.200 C 364.302 435.200,363.883 435.458,363.621 435.774 C 363.359 436.090,362.572 436.471,361.872 436.620 C 361.173 436.770,360.347 437.097,360.039 437.346 C 359.231 437.998,43.169 437.998,42.361 437.346 C 42.053 437.097,41.212 436.767,40.493 436.613 C 39.095 436.314,35.320 434.442,32.392 432.596 C 28.550 430.174,20.800 421.003,20.800 418.879 C 20.800 418.669,20.549 418.290,20.242 418.035 C 19.935 417.780,19.559 416.903,19.406 416.086 C 19.253 415.269,18.930 414.360,18.687 414.066 C 17.369 412.471,17.084 100.823,18.400 99.992 C 19.455 99.325,382.601 99.479,383.155 100.146 M150.000 143.003 C 148.790 143.297,146.720 143.662,145.400 143.815 C 144.080 143.967,142.673 144.264,142.273 144.474 C 141.874 144.685,140.704 145.012,139.673 145.202 C 137.378 145.626,133.705 146.935,133.092 147.548 C 132.843 147.797,132.357 148.000,132.011 148.000 C 131.665 148.000,130.396 148.658,129.191 149.463 C 127.986 150.267,125.740 151.582,124.200 152.385 C 122.660 153.188,120.866 154.195,120.213 154.623 C 117.252 156.562,108.769 165.025,106.800 168.004 C 106.470 168.503,105.795 169.407,105.300 170.013 C 104.805 170.620,104.400 171.217,104.400 171.340 C 104.400 171.463,103.934 172.247,103.365 173.082 C 102.030 175.041,100.004 179.360,99.987 180.283 C 99.980 180.677,99.710 181.349,99.387 181.776 C 99.064 182.204,98.800 182.890,98.800 183.303 C 98.800 183.715,98.579 184.446,98.310 184.926 C 97.849 185.747,97.513 186.960,96.401 191.800 C 96.149 192.900,95.645 194.970,95.282 196.400 C 94.478 199.566,94.013 325.926,94.779 333.124 C 95.487 339.778,97.129 346.489,98.347 347.707 C 98.596 347.956,98.801 348.439,98.802 348.780 C 98.804 349.604,100.583 353.943,101.152 354.512 C 101.398 354.758,101.603 355.149,101.607 355.380 C 101.614 355.780,104.783 359.563,107.990 363.000 C 112.126 367.431,117.128 371.497,120.060 372.810 C 120.577 373.042,121.990 373.762,123.200 374.409 C 124.410 375.057,125.693 375.590,126.051 375.593 C 126.409 375.597,126.914 375.856,127.174 376.169 C 127.434 376.482,128.355 376.857,129.221 377.004 C 130.087 377.150,130.891 377.424,131.007 377.612 C 131.124 377.800,132.069 378.076,133.109 378.226 C 134.149 378.376,135.630 378.791,136.400 379.149 C 138.041 379.912,263.895 379.898,265.322 379.135 C 265.719 378.922,267.095 378.579,268.380 378.372 C 269.665 378.165,271.230 377.728,271.858 377.400 C 272.486 377.073,273.210 376.804,273.468 376.802 C 273.725 376.801,274.445 376.535,275.068 376.211 C 275.690 375.887,277.730 374.892,279.600 374.000 C 283.646 372.070,285.967 370.745,288.352 369.003 C 291.251 366.886,301.200 355.968,301.200 354.904 C 301.200 354.681,301.458 354.283,301.774 354.021 C 302.090 353.759,302.467 353.005,302.612 352.345 C 302.757 351.686,303.127 350.663,303.435 350.073 C 303.743 349.483,303.996 348.667,303.998 348.260 C 303.999 347.854,304.257 346.954,304.570 346.260 C 304.884 345.567,305.322 344.190,305.545 343.200 C 305.767 342.210,306.136 340.680,306.364 339.800 C 307.083 337.026,306.955 197.879,306.231 195.386 C 305.914 194.294,305.528 192.519,305.373 191.441 C 305.218 190.364,304.847 189.014,304.548 188.441 C 304.249 187.869,304.003 186.950,304.000 186.400 C 303.997 185.850,303.743 184.917,303.435 184.327 C 303.127 183.737,302.746 182.667,302.589 181.950 C 302.431 181.232,302.054 180.397,301.751 180.094 C 301.448 179.791,301.200 179.206,301.200 178.795 C 301.200 178.384,301.002 177.925,300.759 177.775 C 300.517 177.625,300.056 176.939,299.735 176.251 C 297.401 171.243,291.558 163.663,286.561 159.163 C 285.485 158.193,284.424 157.206,284.202 156.969 C 283.438 156.151,280.512 154.023,279.558 153.590 C 277.978 152.875,276.225 151.856,274.849 150.855 C 273.120 149.597,270.088 148.000,269.428 148.000 C 269.136 148.000,268.690 147.749,268.435 147.442 C 268.180 147.135,267.356 146.768,266.603 146.627 C 265.850 146.486,264.731 146.108,264.117 145.788 C 263.503 145.467,262.618 145.204,262.150 145.202 C 261.683 145.201,260.599 144.953,259.742 144.650 C 258.885 144.348,257.197 143.973,255.992 143.817 C 254.786 143.661,252.784 143.278,251.542 142.966 C 248.296 142.152,153.360 142.186,150.000 143.003 M241.600 160.377 C 248.148 160.681,252.437 161.403,255.800 162.768 C 256.240 162.947,257.680 163.509,259.000 164.017 C 275.104 170.214,287.451 186.500,288.554 203.000 C 289.173 212.278,288.871 338.031,288.227 339.015 C 287.882 339.541,287.600 340.325,287.600 340.757 C 287.600 341.189,287.330 341.813,287.000 342.143 C 286.670 342.473,286.400 343.027,286.400 343.375 C 286.400 343.723,286.040 344.316,285.600 344.693 C 285.160 345.070,284.800 345.543,284.800 345.745 C 284.800 346.186,280.639 351.394,279.162 352.800 C 275.218 356.556,274.040 357.602,273.740 357.614 C 273.553 357.621,272.680 357.975,271.800 358.400 C 270.920 358.825,269.810 359.179,269.332 359.186 C 268.855 359.194,267.955 359.461,267.332 359.780 C 264.682 361.137,259.451 362.118,258.728 361.394 C 258.615 361.281,233.430 361.187,202.761 361.184 C 149.476 361.180,146.813 361.145,142.800 360.410 C 138.214 359.570,134.149 358.567,133.187 358.039 C 132.850 357.853,132.036 357.584,131.379 357.439 C 129.459 357.018,125.365 353.839,121.839 350.030 C 120.937 349.057,119.930 347.976,119.600 347.627 C 118.168 346.116,114.909 339.947,113.774 336.600 C 112.447 332.685,111.678 201.445,112.958 197.514 C 113.266 196.571,113.637 195.107,113.784 194.260 C 114.498 190.146,118.742 182.475,123.223 177.200 C 123.690 176.650,124.821 175.318,125.736 174.239 C 126.651 173.161,127.683 171.991,128.029 171.639 C 129.121 170.529,133.405 167.200,133.743 167.200 C 133.862 167.200,134.734 166.682,135.680 166.050 C 137.196 165.036,139.241 164.019,143.400 162.208 C 144.060 161.921,145.410 161.477,146.400 161.221 C 147.390 160.966,148.740 160.605,149.400 160.419 C 150.944 159.985,232.360 159.948,241.600 160.377 M158.200 227.483 C 144.898 232.819,143.923 249.523,156.549 255.762 C 169.060 261.944,182.999 246.869,175.848 234.889 C 173.824 231.500,171.426 229.632,166.286 227.444 C 164.357 226.623,160.296 226.642,158.200 227.483 M234.600 227.414 C 233.940 227.717,233.040 227.984,232.600 228.009 C 231.364 228.078,227.161 231.269,225.585 233.335 C 215.040 247.155,234.915 265.614,247.491 253.680 C 253.248 248.217,255.058 239.514,251.340 235.169 C 251.043 234.821,250.800 234.338,250.800 234.095 C 250.800 232.825,245.693 228.505,243.194 227.661 C 240.283 226.678,236.449 226.568,234.600 227.414 M177.726 265.638 C 166.201 270.939,176.895 290.096,193.139 293.248 C 206.201 295.783,218.158 291.273,225.500 281.045 C 226.215 280.049,226.800 278.996,226.800 278.706 C 226.800 278.416,227.108 277.738,227.485 277.201 C 230.738 272.555,226.001 264.843,219.874 264.813 L 217.149 264.800 213.655 268.344 C 207.592 274.495,203.054 276.301,197.052 274.954 C 195.321 274.565,193.701 274.050,193.452 273.809 C 193.204 273.567,192.333 272.962,191.517 272.463 C 190.701 271.964,189.118 270.405,188.000 269.000 C 184.617 264.748,181.720 263.800,177.726 265.638 " stroke="none" fill="#3c1510" fill-rule="evenodd"></path><path id="path2" d="M44.400 18.770 C 43.190 18.910,41.840 19.223,41.400 19.465 C 39.528 20.494,36.864 21.600,36.256 21.600 C 35.895 21.600,35.600 21.786,35.600 22.013 C 35.600 22.240,35.281 22.555,34.892 22.713 C 30.950 24.311,24.863 30.224,23.002 34.263 C 22.682 34.958,22.280 35.588,22.110 35.663 C 19.861 36.655,19.076 42.289,18.921 58.554 L 18.781 73.308 20.179 73.081 C 24.406 72.395,24.688 71.411,24.990 56.259 C 25.259 42.775,25.251 42.831,27.438 38.097 C 28.670 35.431,35.183 29.590,38.989 27.737 C 43.614 25.487,37.362 25.611,146.344 25.608 C 222.022 25.606,247.275 25.490,248.452 25.137 C 251.177 24.321,252.336 21.517,250.742 19.600 L 249.910 18.600 148.255 18.557 C 92.345 18.534,45.610 18.629,44.400 18.770 M279.443 41.833 C 278.654 43.889,279.176 45.621,281.208 47.685 C 284.118 50.641,284.140 51.156,281.469 53.695 C 280.251 54.853,279.135 56.285,278.989 56.879 C 278.375 59.376,280.703 62.445,282.326 61.279 C 282.697 61.012,283.443 60.570,283.985 60.297 C 284.526 60.024,285.606 59.216,286.385 58.502 C 287.163 57.788,288.025 57.203,288.300 57.202 C 288.575 57.201,288.800 57.032,288.800 56.827 C 288.800 56.622,289.140 56.346,289.555 56.214 C 293.008 55.118,293.909 46.997,290.600 46.801 C 290.380 46.788,289.687 46.255,289.060 45.616 C 288.433 44.976,287.173 43.947,286.260 43.328 C 285.347 42.709,284.456 41.977,284.280 41.701 C 283.787 40.928,279.748 41.038,279.443 41.833 M333.837 42.978 C 332.858 45.042,334.231 47.640,337.100 49.153 C 338.381 49.829,338.281 51.402,336.900 52.286 C 336.295 52.673,335.562 53.217,335.271 53.495 C 334.981 53.773,334.576 54.000,334.371 54.000 C 334.167 54.000,334.000 54.270,334.000 54.600 C 334.000 54.930,333.832 55.200,333.627 55.200 C 332.811 55.200,332.811 56.796,333.626 58.360 C 334.509 60.054,335.807 60.568,336.255 59.400 C 336.382 59.070,336.736 58.800,337.043 58.800 C 337.349 58.800,337.600 58.653,337.600 58.473 C 337.600 58.071,342.650 54.400,343.203 54.400 C 343.421 54.400,343.600 54.259,343.600 54.086 C 343.600 53.914,344.140 53.454,344.800 53.064 C 346.654 51.969,346.549 49.497,344.600 48.347 C 343.830 47.893,343.200 47.359,343.200 47.160 C 343.200 46.962,342.924 46.800,342.587 46.800 C 342.251 46.800,341.871 46.530,341.745 46.200 C 341.618 45.870,341.335 45.600,341.115 45.600 C 340.770 45.600,339.881 44.969,337.691 43.170 C 335.829 41.640,334.503 41.574,333.837 42.978 M18.800 255.151 C 18.800 391.803,18.870 410.070,19.400 411.338 C 19.730 412.128,20.001 413.365,20.003 414.087 C 20.004 414.809,20.363 415.940,20.800 416.600 C 21.237 417.260,21.596 418.100,21.597 418.467 C 21.599 418.833,21.742 419.193,21.915 419.267 C 22.088 419.340,22.738 420.277,23.360 421.348 C 24.504 423.321,25.232 424.320,26.500 425.660 C 26.885 426.067,27.200 426.482,27.200 426.582 C 27.200 426.819,29.181 428.800,29.418 428.800 C 29.518 428.800,29.933 429.115,30.340 429.500 C 31.771 430.854,33.565 432.100,35.400 433.014 C 36.060 433.343,36.870 433.768,37.200 433.959 C 39.012 435.006,41.621 436.000,42.557 436.000 C 43.145 436.000,44.272 436.270,45.062 436.600 C 46.330 437.130,64.645 437.200,201.677 437.200 C 339.082 437.200,356.926 437.131,357.457 436.600 C 357.787 436.270,358.737 436.000,359.567 436.000 C 360.503 436.000,361.428 435.696,362.000 435.200 C 362.507 434.760,363.261 434.400,363.674 434.400 C 364.087 434.400,364.524 434.141,364.646 433.824 C 364.767 433.508,365.377 433.137,366.000 433.000 C 366.623 432.863,367.233 432.492,367.354 432.176 C 367.476 431.859,367.851 431.600,368.187 431.600 C 368.524 431.600,368.800 431.463,368.800 431.295 C 368.800 431.127,369.944 430.094,371.341 428.999 C 372.739 427.904,374.314 426.404,374.841 425.665 C 375.369 424.927,376.115 424.030,376.500 423.672 C 376.885 423.315,377.200 422.787,377.200 422.499 C 377.200 422.211,377.470 421.871,377.800 421.745 C 378.130 421.618,378.400 421.201,378.400 420.818 C 378.400 420.436,378.760 419.707,379.200 419.200 C 379.640 418.693,380.000 417.939,380.000 417.526 C 380.000 417.113,380.270 416.671,380.600 416.545 C 380.969 416.403,381.200 415.796,381.200 414.971 C 381.200 414.232,381.504 412.767,381.876 411.714 C 382.697 409.386,382.623 428.849,382.500 247.500 L 382.400 100.400 200.600 100.400 L 18.800 100.400 18.800 255.151 M255.311 142.326 C 255.660 142.615,256.992 142.955,258.272 143.081 C 259.553 143.207,261.050 143.532,261.600 143.802 C 262.150 144.072,263.311 144.422,264.180 144.580 C 265.048 144.737,266.123 145.121,266.569 145.433 C 267.014 145.745,267.766 146.000,268.240 146.000 C 268.714 146.000,269.317 146.258,269.579 146.574 C 269.841 146.890,270.570 147.262,271.200 147.400 C 271.830 147.538,272.559 147.910,272.821 148.226 C 273.083 148.542,273.518 148.800,273.787 148.800 C 274.056 148.800,274.799 149.256,275.438 149.814 C 276.077 150.371,277.697 151.372,279.037 152.037 C 280.377 152.703,282.054 153.777,282.762 154.424 C 283.470 155.071,284.187 155.600,284.356 155.600 C 285.640 155.600,297.600 169.122,297.600 170.573 C 297.600 170.881,297.804 171.201,298.053 171.284 C 298.536 171.445,300.500 174.786,302.236 178.400 C 302.817 179.610,303.535 181.066,303.831 181.637 C 304.128 182.207,304.494 183.467,304.644 184.437 C 304.795 185.406,305.162 186.555,305.459 186.989 C 305.757 187.423,306.000 188.377,306.000 189.109 C 306.000 189.841,306.252 190.928,306.561 191.524 C 307.948 194.207,308.062 198.910,308.393 267.400 C 308.661 322.885,308.625 335.215,308.194 336.200 C 307.905 336.860,307.589 338.683,307.491 340.251 C 307.383 341.993,307.058 343.467,306.657 344.040 C 306.296 344.556,306.000 345.546,306.000 346.240 C 306.000 346.934,305.730 347.726,305.400 348.000 C 305.070 348.274,304.799 349.150,304.797 349.949 C 304.796 350.747,304.437 351.940,304.000 352.600 C 303.563 353.260,303.204 354.096,303.203 354.457 C 303.201 354.819,302.930 355.218,302.600 355.345 C 302.270 355.471,302.000 355.828,302.000 356.138 C 302.000 356.448,301.280 357.466,300.400 358.400 C 299.520 359.334,298.800 360.257,298.800 360.449 C 298.800 360.642,298.530 360.800,298.200 360.800 C 297.870 360.800,297.600 361.057,297.600 361.372 C 297.600 362.277,290.556 369.200,289.634 369.200 C 289.396 369.200,289.200 369.470,289.200 369.800 C 289.200 370.130,288.958 370.400,288.662 370.400 C 288.366 370.400,287.798 370.760,287.400 371.200 C 287.002 371.640,286.344 372.000,285.938 372.000 C 285.532 372.000,285.200 372.178,285.200 372.395 C 285.200 372.612,284.592 373.043,283.849 373.354 C 283.106 373.664,282.375 374.117,282.225 374.359 C 282.075 374.602,281.625 374.800,281.225 374.800 C 280.825 374.800,280.278 375.065,280.009 375.389 C 279.740 375.714,278.914 376.092,278.174 376.231 C 277.434 376.370,276.620 376.735,276.365 377.042 C 276.110 377.349,275.533 377.600,275.083 377.600 C 274.632 377.600,273.941 377.891,273.548 378.247 C 273.154 378.603,271.970 378.989,270.916 379.105 C 269.862 379.221,268.874 379.511,268.719 379.750 C 268.565 379.989,267.035 380.318,265.319 380.482 C 263.604 380.645,260.580 380.951,258.600 381.161 C 252.004 381.861,141.619 381.712,139.600 381.000 C 138.665 380.670,137.035 380.400,135.978 380.400 C 134.912 380.400,133.820 380.163,133.525 379.868 C 133.232 379.575,132.107 379.214,131.025 379.065 C 129.944 378.917,128.761 378.527,128.398 378.198 C 128.034 377.869,127.359 377.600,126.897 377.600 C 126.435 377.600,125.787 377.330,125.457 377.000 C 125.127 376.670,124.483 376.400,124.025 376.400 C 123.567 376.400,122.884 376.040,122.507 375.600 C 122.130 375.160,121.421 374.800,120.931 374.800 C 120.441 374.800,119.896 374.571,119.720 374.292 C 119.544 374.012,118.950 373.555,118.400 373.276 C 116.725 372.426,115.768 371.823,115.099 371.197 C 114.748 370.869,113.592 369.881,112.530 369.002 C 110.264 367.127,105.200 361.969,105.200 361.536 C 105.200 361.372,104.379 360.428,103.376 359.439 C 101.472 357.562,99.600 355.048,99.600 354.368 C 99.600 354.150,99.348 353.573,99.039 353.086 C 98.731 352.599,98.349 351.580,98.190 350.823 C 98.032 350.065,97.654 349.197,97.351 348.894 C 97.048 348.591,96.800 347.946,96.800 347.460 C 96.800 346.975,96.536 346.201,96.213 345.740 C 95.890 345.279,95.505 344.114,95.358 343.151 C 95.211 342.188,94.912 341.174,94.694 340.897 C 93.390 339.245,93.218 330.773,93.209 268.018 C 93.200 207.867,93.321 200.643,94.427 195.000 C 95.356 190.262,95.879 188.145,96.325 187.326 C 96.586 186.846,96.806 186.036,96.814 185.526 C 96.821 185.017,97.175 183.880,97.600 183.000 C 98.025 182.120,98.385 181.130,98.399 180.800 C 98.414 180.470,98.690 179.851,99.013 179.424 C 99.336 178.996,99.600 178.267,99.600 177.804 C 99.600 177.340,99.770 176.789,99.978 176.580 C 100.186 176.371,100.929 175.120,101.630 173.800 C 102.331 172.480,103.016 171.310,103.152 171.200 C 103.618 170.824,105.200 168.433,105.200 168.105 C 105.200 167.925,105.515 167.487,105.900 167.132 C 106.285 166.778,107.320 165.613,108.200 164.544 C 111.123 160.993,118.034 154.400,118.833 154.400 C 119.035 154.400,119.200 154.211,119.200 153.980 C 119.200 153.748,119.785 153.296,120.500 152.974 C 121.215 152.652,122.070 152.237,122.400 152.053 C 122.730 151.868,123.707 151.376,124.571 150.959 C 125.434 150.541,126.339 150.020,126.581 149.800 C 127.382 149.072,129.563 147.600,129.840 147.600 C 130.085 147.600,131.259 147.090,135.000 145.358 C 135.660 145.053,136.822 144.682,137.582 144.535 C 138.343 144.388,139.423 144.028,139.982 143.736 C 140.542 143.444,141.630 143.193,142.400 143.179 C 143.170 143.165,145.060 142.813,146.600 142.396 C 150.226 141.414,254.132 141.347,255.311 142.326 M150.400 161.370 C 149.850 161.665,148.620 162.036,147.667 162.194 C 146.714 162.352,145.454 162.732,144.867 163.038 C 144.280 163.344,143.558 163.596,143.262 163.598 C 142.966 163.599,142.246 163.869,141.662 164.197 C 141.078 164.526,140.150 164.980,139.600 165.207 C 139.050 165.433,137.880 166.056,137.000 166.590 C 136.120 167.125,135.130 167.696,134.800 167.861 C 134.169 168.175,134.138 168.198,132.142 169.794 C 131.450 170.347,130.775 170.800,130.642 170.800 C 130.246 170.800,127.200 173.968,127.200 174.380 C 127.200 174.589,126.956 174.904,126.657 175.080 C 126.222 175.337,123.271 179.008,119.471 184.022 C 119.212 184.364,118.568 185.534,118.041 186.622 C 117.513 187.710,116.927 188.870,116.738 189.200 C 116.549 189.530,116.335 189.980,116.262 190.200 C 116.189 190.420,115.740 191.770,115.264 193.200 C 114.789 194.630,114.400 196.314,114.400 196.942 C 114.400 197.571,114.143 199.101,113.829 200.342 C 113.347 202.247,113.269 210.545,113.329 253.398 L 113.400 304.196 114.988 304.717 C 116.811 305.314,117.029 305.576,117.349 307.555 C 117.831 310.536,120.596 312.227,123.064 311.050 C 125.981 309.659,125.777 313.716,126.000 252.800 C 126.110 222.770,126.351 197.840,126.536 197.400 C 126.721 196.960,127.005 196.240,127.167 195.800 C 128.478 192.238,131.680 187.545,134.881 184.494 C 136.976 182.497,145.857 177.892,149.600 176.862 C 152.034 176.192,179.251 175.761,225.804 175.655 L 249.808 175.600 250.949 174.542 C 253.113 172.536,252.156 169.398,248.738 167.285 L 247.306 166.400 223.519 166.400 C 210.436 166.400,190.243 166.280,178.646 166.134 L 157.560 165.869 155.038 163.334 C 152.382 160.666,152.006 160.506,150.400 161.370 M166.000 183.070 C 162.778 183.736,162.289 188.953,165.297 190.572 C 167.517 191.768,179.155 191.359,180.562 190.036 C 182.450 188.262,182.273 184.618,180.245 183.506 C 179.376 183.029,167.897 182.678,166.000 183.070 M140.080 186.672 C 138.076 187.655,134.617 192.015,132.127 196.699 C 129.589 201.472,132.384 206.648,136.489 204.778 C 137.442 204.344,139.200 202.094,139.200 201.308 C 139.200 200.402,141.195 196.946,142.611 195.400 C 146.897 190.720,145.021 184.248,140.080 186.672 M278.853 316.572 C 277.617 317.233,276.406 319.173,276.403 320.496 C 276.398 322.480,274.377 326.766,272.547 328.677 C 271.586 329.680,270.798 330.613,270.795 330.750 C 270.789 330.991,266.696 334.953,265.550 335.827 C 264.310 336.773,259.228 339.600,258.769 339.600 C 257.732 339.600,254.025 341.642,253.232 342.651 C 250.124 346.602,255.007 350.407,260.156 348.047 C 262.612 346.921,266.091 345.212,267.020 344.674 C 269.952 342.977,274.873 338.282,275.791 336.306 C 276.125 335.588,276.714 334.524,277.099 333.943 C 278.081 332.462,280.483 328.556,281.200 327.273 C 281.530 326.683,281.892 326.110,282.004 326.000 C 283.435 324.596,284.402 319.163,283.445 317.903 C 282.580 316.763,279.930 315.995,278.853 316.572 M286.400 336.759 C 286.400 337.145,284.868 339.656,284.006 340.683 C 283.783 340.949,283.600 341.316,283.600 341.498 C 283.600 342.695,273.137 352.401,270.400 353.744 C 270.070 353.906,269.139 354.435,268.332 354.919 C 267.524 355.404,265.904 356.315,264.732 356.945 C 262.427 358.182,261.200 359.127,261.200 359.662 C 261.200 360.306,264.219 359.996,265.704 359.200 C 266.525 358.760,267.603 358.394,268.099 358.387 C 268.594 358.380,269.349 358.110,269.776 357.787 C 270.204 357.464,270.994 357.200,271.533 357.200 C 274.029 357.200,283.114 347.541,285.453 342.400 C 285.803 341.630,286.232 340.910,286.406 340.800 C 286.954 340.453,287.320 336.921,286.838 336.624 C 286.597 336.475,286.400 336.535,286.400 336.759 " stroke="none" fill="#f1f7f5" fill-rule="evenodd"></path><path id="path3" d="M48.400 17.238 C 43.868 17.535,40.670 18.165,39.487 18.994 C 39.011 19.327,38.324 19.600,37.960 19.600 C 37.596 19.600,37.074 19.870,36.800 20.200 C 36.526 20.530,36.052 20.800,35.747 20.800 C 35.442 20.800,34.295 21.430,33.200 22.200 C 32.105 22.970,31.024 23.600,30.798 23.600 C 30.264 23.600,23.600 30.264,23.600 30.798 C 23.600 31.024,22.970 32.105,22.200 33.200 C 21.430 34.295,20.800 35.352,20.800 35.547 C 20.800 35.742,20.549 36.110,20.242 36.365 C 19.935 36.620,19.568 37.444,19.427 38.197 C 19.286 38.950,18.908 40.069,18.588 40.683 C 17.954 41.897,17.677 74.800,18.300 74.800 C 18.465 74.800,18.600 67.735,18.600 59.100 C 18.600 40.835,18.562 41.084,22.445 33.996 C 25.330 28.729,31.252 23.580,37.800 20.645 C 39.120 20.053,40.513 19.395,40.896 19.184 C 42.899 18.075,50.292 17.994,149.332 18.000 C 205.469 18.003,266.250 17.964,284.400 17.913 L 317.400 17.819 282.800 17.496 C 240.308 17.099,53.646 16.893,48.400 17.238 M338.500 29.476 C 338.885 29.576,339.515 29.576,339.900 29.476 C 340.285 29.375,339.970 29.293,339.200 29.293 C 338.430 29.293,338.115 29.375,338.500 29.476 M281.283 39.509 C 277.071 40.201,276.697 45.212,280.589 48.800 C 282.631 50.683,282.600 50.871,279.744 53.813 C 276.780 56.865,276.530 58.185,278.428 60.752 C 280.141 63.069,282.437 62.911,286.000 60.233 C 287.210 59.324,289.010 58.044,290.000 57.390 C 293.933 54.790,294.953 52.219,293.453 48.687 C 292.256 45.866,283.371 39.166,281.283 39.509 M106.200 40.406 C 104.935 40.628,105.304 40.698,107.967 40.743 C 109.818 40.774,111.258 40.735,111.167 40.656 C 110.763 40.306,107.660 40.151,106.200 40.406 M45.900 40.689 C 46.615 40.778,47.785 40.778,48.500 40.689 C 49.215 40.601,48.630 40.528,47.200 40.528 C 45.770 40.528,45.185 40.601,45.900 40.689 M75.700 40.691 C 76.525 40.778,77.875 40.778,78.700 40.691 C 79.525 40.605,78.850 40.534,77.200 40.534 C 75.550 40.534,74.875 40.605,75.700 40.691 M137.705 40.687 C 138.314 40.779,139.214 40.777,139.705 40.682 C 140.197 40.587,139.700 40.511,138.600 40.514 C 137.500 40.517,137.097 40.595,137.705 40.687 M285.827 42.420 C 287.075 43.342,288.396 44.396,288.762 44.762 C 289.129 45.129,290.096 45.937,290.911 46.559 C 293.521 48.550,293.954 53.446,291.677 55.213 C 282.002 62.721,280.645 63.143,278.500 59.305 C 277.612 57.717,277.953 56.865,280.600 54.059 C 283.736 50.734,283.721 50.960,281.012 48.013 C 275.777 42.319,279.631 37.843,285.827 42.420 M333.160 41.578 C 331.190 43.549,331.604 45.916,334.361 48.437 C 336.236 50.152,336.984 51.600,335.994 51.600 C 334.426 51.600,331.900 55.221,332.090 57.198 C 332.506 61.526,335.007 62.016,339.239 58.597 C 340.738 57.385,342.647 55.991,343.479 55.500 C 347.878 52.905,348.529 49.642,345.119 47.289 C 344.250 46.690,342.307 45.255,340.799 44.100 C 339.292 42.945,337.874 42.000,337.649 42.000 C 337.424 42.000,337.096 41.744,336.920 41.432 C 336.212 40.175,334.497 40.242,333.160 41.578 M41.260 42.003 C 40.347 42.664,39.600 43.322,39.600 43.465 C 39.600 43.607,39.915 43.446,40.300 43.106 C 40.685 42.766,41.717 42.108,42.594 41.644 C 43.471 41.180,43.903 40.800,43.554 40.800 C 43.205 40.800,42.173 41.341,41.260 42.003 M71.735 41.624 C 71.039 42.070,70.174 42.922,69.812 43.517 L 69.156 44.600 70.078 43.542 C 70.585 42.961,71.630 42.106,72.400 41.644 C 73.170 41.181,73.620 40.805,73.400 40.808 C 73.180 40.811,72.431 41.178,71.735 41.624 M81.121 41.220 C 81.628 41.423,82.961 42.533,84.084 43.686 C 85.207 44.839,85.920 45.397,85.668 44.926 C 85.037 43.749,81.535 40.800,80.800 40.828 C 80.470 40.840,80.614 41.017,81.121 41.220 M133.800 41.600 C 133.140 42.037,132.780 42.395,133.000 42.395 C 133.220 42.395,133.940 42.037,134.600 41.600 C 135.260 41.163,135.620 40.805,135.400 40.805 C 135.180 40.805,134.460 41.163,133.800 41.600 M143.400 41.799 C 144.280 42.334,145.605 43.454,146.345 44.286 C 147.625 45.728,147.647 45.736,146.792 44.464 C 145.861 43.079,143.009 40.791,142.240 40.812 C 141.998 40.819,142.520 41.263,143.400 41.799 M53.650 43.264 C 55.449 45.065,56.000 45.932,56.395 47.581 C 56.667 48.715,56.972 49.562,57.071 49.462 C 57.966 48.567,55.087 43.626,52.672 41.912 C 51.921 41.379,52.321 41.932,53.650 43.264 M113.800 42.211 C 114.460 42.807,115.420 43.769,115.933 44.347 L 116.866 45.400 116.017 44.116 C 115.550 43.410,114.590 42.448,113.884 41.979 L 112.600 41.127 113.800 42.211 M338.476 43.312 C 347.081 49.525,346.400 48.883,346.400 50.781 C 346.400 52.490,345.597 53.546,343.438 54.677 C 342.798 55.011,342.078 55.445,341.838 55.641 C 335.848 60.519,334.891 60.951,333.629 59.346 C 331.934 57.192,332.648 54.873,335.700 52.615 C 337.437 51.329,337.665 49.997,336.300 49.101 C 332.942 46.897,331.866 44.045,333.670 42.126 C 334.872 40.846,335.159 40.916,338.476 43.312 M130.975 43.700 L 129.800 45.000 131.100 43.825 C 132.312 42.730,132.584 42.400,132.275 42.400 C 132.206 42.400,131.621 42.985,130.975 43.700 M38.700 45.014 C 37.701 46.350,37.831 46.723,38.846 45.433 C 39.311 44.842,39.626 44.295,39.546 44.218 C 39.466 44.141,39.085 44.500,38.700 45.014 M99.265 45.417 C 98.595 46.888,98.723 47.202,99.447 45.865 C 99.786 45.240,99.988 44.654,99.896 44.563 C 99.805 44.471,99.521 44.856,99.265 45.417 M116.828 45.800 C 116.828 46.020,117.086 46.650,117.400 47.200 C 117.714 47.750,117.972 48.020,117.972 47.800 C 117.972 47.580,117.714 46.950,117.400 46.400 C 117.086 45.850,116.828 45.580,116.828 45.800 M86.000 46.247 C 86.000 46.467,86.264 46.996,86.587 47.424 C 86.910 47.851,87.175 48.020,87.175 47.800 C 87.175 47.580,86.910 47.051,86.587 46.624 C 86.264 46.196,86.000 46.027,86.000 46.247 M128.865 47.017 C 128.195 48.488,128.323 48.802,129.047 47.465 C 129.386 46.840,129.588 46.254,129.496 46.163 C 129.405 46.071,129.121 46.456,128.865 47.017 M147.818 46.900 C 147.968 47.395,148.255 47.976,148.456 48.191 C 148.657 48.406,148.619 48.001,148.372 47.291 C 147.865 45.838,147.397 45.508,147.818 46.900 M37.300 47.893 C 37.025 48.479,36.807 49.239,36.816 49.580 C 36.824 49.921,37.099 49.584,37.426 48.830 C 38.134 47.199,38.021 46.356,37.300 47.893 M87.331 51.400 C 87.333 52.940,87.405 53.521,87.492 52.691 C 87.579 51.861,87.577 50.601,87.489 49.891 C 87.400 49.181,87.329 49.860,87.331 51.400 M118.093 50.000 C 118.093 50.770,118.175 51.085,118.276 50.700 C 118.376 50.315,118.376 49.685,118.276 49.300 C 118.175 48.915,118.093 49.230,118.093 50.000 M98.093 50.800 C 98.093 51.570,98.175 51.885,98.276 51.500 C 98.376 51.115,98.376 50.485,98.276 50.100 C 98.175 49.715,98.093 50.030,98.093 50.800 M56.895 52.240 C 56.629 53.508,56.479 54.612,56.561 54.694 C 56.790 54.923,57.694 50.883,57.526 50.379 C 57.445 50.135,57.161 50.973,56.895 52.240 M36.856 52.200 C 36.859 52.640,37.116 53.630,37.427 54.400 L 37.993 55.800 37.745 54.400 C 37.608 53.630,37.351 52.640,37.173 52.200 L 36.851 51.400 36.856 52.200 M148.465 53.817 C 148.209 54.378,148.007 55.054,148.016 55.319 C 148.024 55.583,148.297 55.188,148.622 54.439 C 149.305 52.865,149.161 52.290,148.465 53.817 M86.457 55.257 C 86.175 55.709,86.032 56.166,86.140 56.273 C 86.247 56.381,86.544 56.078,86.800 55.600 C 87.056 55.122,87.198 54.665,87.117 54.584 C 87.036 54.503,86.739 54.806,86.457 55.257 M55.462 56.404 C 55.078 57.052,54.098 58.236,53.283 59.034 C 51.855 60.432,51.848 60.452,53.093 59.572 C 54.324 58.704,56.629 55.695,56.309 55.376 C 56.226 55.293,55.845 55.755,55.462 56.404 M68.028 55.400 C 68.028 55.620,68.286 56.250,68.600 56.800 C 68.914 57.350,69.172 57.620,69.172 57.400 C 69.172 57.180,68.914 56.550,68.600 56.000 C 68.286 55.450,68.028 55.180,68.028 55.400 M38.021 56.211 C 38.009 56.437,38.828 57.517,39.840 58.611 C 40.852 59.705,41.167 59.966,40.540 59.191 C 39.913 58.415,39.094 57.335,38.721 56.791 C 38.348 56.246,38.033 55.985,38.021 56.211 M84.834 58.153 L 83.869 59.400 85.013 58.312 C 85.643 57.714,86.077 57.153,85.979 57.065 C 85.880 56.977,85.365 57.467,84.834 58.153 M70.063 59.200 C 70.551 59.860,71.098 60.400,71.278 60.400 C 71.459 60.400,71.125 59.860,70.537 59.200 C 69.949 58.540,69.402 58.000,69.322 58.000 C 69.242 58.000,69.575 58.540,70.063 59.200 M42.800 60.969 C 43.350 61.301,44.070 61.573,44.400 61.574 C 45.203 61.576,44.252 61.016,42.800 60.632 L 41.800 60.367 42.800 60.969 M72.800 61.000 C 73.350 61.314,73.980 61.572,74.200 61.572 C 74.420 61.572,74.150 61.314,73.600 61.000 C 73.050 60.686,72.420 60.428,72.200 60.428 C 71.980 60.428,72.250 60.686,72.800 61.000 M79.800 60.986 C 78.182 61.726,79.153 61.754,80.854 61.016 C 81.594 60.694,81.930 60.432,81.600 60.434 C 81.270 60.435,80.460 60.683,79.800 60.986 M46.100 61.876 C 46.485 61.976,47.115 61.976,47.500 61.876 C 47.885 61.775,47.570 61.693,46.800 61.693 C 46.030 61.693,45.715 61.775,46.100 61.876 M75.905 61.883 C 76.402 61.979,77.122 61.975,77.505 61.875 C 77.887 61.775,77.480 61.696,76.600 61.701 C 75.720 61.705,75.407 61.787,75.905 61.883 M106.905 61.887 C 107.514 61.979,108.414 61.977,108.905 61.882 C 109.397 61.787,108.900 61.711,107.800 61.714 C 106.700 61.717,106.297 61.795,106.905 61.887 M138.100 61.876 C 138.485 61.976,139.115 61.976,139.500 61.876 C 139.885 61.775,139.570 61.693,138.800 61.693 C 138.030 61.693,137.715 61.775,138.100 61.876 M283.500 72.289 C 284.215 72.378,285.385 72.378,286.100 72.289 C 286.815 72.201,286.230 72.128,284.800 72.128 C 283.370 72.128,282.785 72.201,283.500 72.289 M18.400 99.992 C 17.084 100.823,17.369 412.471,18.687 414.066 C 18.930 414.360,19.253 415.269,19.406 416.086 C 19.559 416.903,19.935 417.780,20.242 418.035 C 20.549 418.290,20.800 418.669,20.800 418.879 C 20.800 421.003,28.550 430.174,32.392 432.596 C 35.320 434.442,39.095 436.314,40.493 436.613 C 41.212 436.767,42.053 437.097,42.361 437.346 C 42.778 437.683,83.767 437.800,201.200 437.800 C 318.633 437.800,359.622 437.683,360.039 437.346 C 360.347 437.097,361.173 436.770,361.872 436.620 C 362.572 436.471,363.359 436.090,363.621 435.774 C 363.883 435.458,364.302 435.200,364.552 435.200 C 365.055 435.200,369.809 432.173,370.821 431.210 C 371.173 430.874,372.257 429.860,373.230 428.956 C 376.178 426.219,379.200 422.510,379.200 421.631 C 379.200 421.448,379.458 421.083,379.774 420.821 C 380.090 420.559,380.464 419.817,380.606 419.172 C 380.748 418.528,381.004 418.000,381.176 418.000 C 381.347 418.000,381.918 416.785,382.444 415.300 L 383.400 412.600 383.504 256.646 C 383.581 140.967,383.491 100.551,383.155 100.146 C 382.601 99.479,19.455 99.325,18.400 99.992 M274.665 100.400 L 382.800 100.400 382.800 255.665 C 382.800 396.513,382.741 411.137,382.163 413.165 C 379.183 423.617,369.753 433.340,359.400 436.636 C 357.055 437.383,353.447 437.400,201.200 437.400 L 45.400 437.400 42.564 436.543 C 39.648 435.662,39.457 435.584,36.400 434.011 C 30.237 430.839,24.862 425.534,22.003 419.800 C 21.454 418.700,20.814 417.530,20.580 417.200 C 18.479 414.242,18.600 424.099,18.600 255.400 L 18.600 100.600 80.000 100.367 C 113.770 100.239,147.054 100.194,153.965 100.267 C 160.876 100.340,215.191 100.400,274.665 100.400 M148.400 142.463 C 147.630 142.672,145.650 143.088,144.000 143.387 C 140.127 144.088,137.681 144.737,136.268 145.438 C 135.645 145.747,134.959 146.000,134.743 146.000 C 134.021 146.000,129.827 148.112,127.200 149.799 C 125.770 150.718,123.700 151.898,122.600 152.422 C 118.449 154.400,109.324 163.081,105.297 168.883 C 102.463 172.967,99.600 178.142,99.600 179.181 C 99.600 179.417,99.421 179.923,99.203 180.305 C 98.643 181.285,97.626 184.235,97.011 186.668 C 96.723 187.805,96.378 188.912,96.244 189.128 C 95.974 189.566,94.907 194.615,94.370 198.000 C 93.909 200.902,93.932 334.861,94.393 337.200 C 95.231 341.447,96.054 344.614,96.413 344.973 C 96.626 345.186,96.800 345.642,96.800 345.986 C 96.800 346.330,97.160 347.284,97.600 348.104 C 98.040 348.925,98.400 349.862,98.400 350.186 C 98.400 350.743,99.245 352.645,100.737 355.445 C 105.181 363.789,119.509 374.788,130.400 378.217 C 131.610 378.598,133.320 379.180,134.200 379.509 C 136.852 380.503,150.156 380.688,207.800 380.536 C 261.023 380.396,265.861 380.316,267.275 379.560 C 267.667 379.350,268.756 379.015,269.694 378.815 C 272.167 378.288,275.301 377.163,276.031 376.539 C 276.379 376.243,276.891 376.000,277.170 376.000 C 277.449 376.000,278.154 375.731,278.738 375.403 C 279.322 375.074,280.250 374.620,280.800 374.393 C 281.350 374.167,282.520 373.544,283.400 373.010 C 284.280 372.475,285.270 371.904,285.600 371.739 C 285.930 371.575,286.380 371.291,286.600 371.109 C 286.820 370.927,288.080 369.957,289.400 368.954 C 291.975 366.998,294.990 364.005,298.200 360.219 C 299.300 358.921,300.391 357.666,300.624 357.430 C 300.996 357.052,302.130 354.992,303.866 351.538 C 304.160 350.954,304.401 350.054,304.402 349.538 C 304.404 349.022,304.667 348.097,304.988 347.483 C 305.308 346.869,305.695 345.699,305.848 344.883 C 306.001 344.067,306.346 342.860,306.616 342.200 C 307.635 339.706,307.741 332.063,307.657 267.000 C 307.575 203.690,307.425 194.716,306.419 192.836 C 306.189 192.405,306.000 191.676,306.000 191.216 C 306.000 190.756,305.640 189.356,305.200 188.104 C 304.760 186.852,304.400 185.489,304.400 185.074 C 304.400 183.240,300.187 174.969,296.256 169.087 C 293.947 165.630,287.453 158.644,284.064 155.970 C 283.110 155.216,282.118 154.406,281.861 154.168 C 281.363 153.708,279.615 152.719,278.042 152.009 C 277.516 151.771,276.436 151.069,275.642 150.449 C 272.271 147.816,264.278 144.658,257.800 143.400 C 256.260 143.101,254.280 142.668,253.400 142.437 C 251.308 141.891,150.414 141.915,148.400 142.463 M251.542 142.966 C 252.784 143.278,254.786 143.661,255.992 143.817 C 257.197 143.973,258.885 144.348,259.742 144.650 C 260.599 144.953,261.683 145.201,262.150 145.202 C 262.618 145.204,263.503 145.467,264.117 145.788 C 264.731 146.108,265.850 146.486,266.603 146.627 C 267.356 146.768,268.180 147.135,268.435 147.442 C 268.690 147.749,269.136 148.000,269.428 148.000 C 270.088 148.000,273.120 149.597,274.849 150.855 C 276.225 151.856,277.978 152.875,279.558 153.590 C 280.512 154.023,283.438 156.151,284.202 156.969 C 284.424 157.206,285.485 158.193,286.561 159.163 C 291.558 163.663,297.401 171.243,299.735 176.251 C 300.056 176.939,300.517 177.625,300.759 177.775 C 301.002 177.925,301.200 178.384,301.200 178.795 C 301.200 179.206,301.448 179.791,301.751 180.094 C 302.054 180.397,302.431 181.232,302.589 181.950 C 302.746 182.667,303.127 183.737,303.435 184.327 C 303.743 184.917,303.997 185.850,304.000 186.400 C 304.003 186.950,304.249 187.869,304.548 188.441 C 304.847 189.014,305.218 190.364,305.373 191.441 C 305.528 192.519,305.914 194.294,306.231 195.386 C 306.955 197.879,307.083 337.026,306.364 339.800 C 306.136 340.680,305.767 342.210,305.545 343.200 C 305.322 344.190,304.884 345.567,304.570 346.260 C 304.257 346.954,303.999 347.854,303.998 348.260 C 303.996 348.667,303.743 349.483,303.435 350.073 C 303.127 350.663,302.757 351.686,302.612 352.345 C 302.467 353.005,302.090 353.759,301.774 354.021 C 301.458 354.283,301.200 354.681,301.200 354.904 C 301.200 355.968,291.251 366.886,288.352 369.003 C 285.967 370.745,283.646 372.070,279.600 374.000 C 277.730 374.892,275.690 375.887,275.068 376.211 C 274.445 376.535,273.725 376.801,273.468 376.802 C 273.210 376.804,272.486 377.073,271.858 377.400 C 271.230 377.728,269.665 378.165,268.380 378.372 C 267.095 378.579,265.719 378.922,265.322 379.135 C 263.895 379.898,138.041 379.912,136.400 379.149 C 135.630 378.791,134.149 378.376,133.109 378.226 C 132.069 378.076,131.124 377.800,131.007 377.612 C 130.891 377.424,130.087 377.150,129.221 377.004 C 128.355 376.857,127.434 376.482,127.174 376.169 C 126.914 375.856,126.409 375.597,126.051 375.593 C 125.693 375.590,124.410 375.057,123.200 374.409 C 121.990 373.762,120.577 373.042,120.060 372.810 C 117.128 371.497,112.126 367.431,107.990 363.000 C 104.783 359.563,101.614 355.780,101.607 355.380 C 101.603 355.149,101.398 354.758,101.152 354.512 C 100.583 353.943,98.804 349.604,98.802 348.780 C 98.801 348.439,98.596 347.956,98.347 347.707 C 97.129 346.489,95.487 339.778,94.779 333.124 C 94.013 325.926,94.478 199.566,95.282 196.400 C 95.645 194.970,96.149 192.900,96.401 191.800 C 97.513 186.960,97.849 185.747,98.310 184.926 C 98.579 184.446,98.800 183.715,98.800 183.303 C 98.800 182.890,99.064 182.204,99.387 181.776 C 99.710 181.349,99.980 180.677,99.987 180.283 C 100.004 179.360,102.030 175.041,103.365 173.082 C 103.934 172.247,104.400 171.463,104.400 171.340 C 104.400 171.217,104.805 170.620,105.300 170.013 C 105.795 169.407,106.470 168.503,106.800 168.004 C 108.769 165.025,117.252 156.562,120.213 154.623 C 120.866 154.195,122.660 153.188,124.200 152.385 C 125.740 151.582,127.986 150.267,129.191 149.463 C 130.396 148.658,131.665 148.000,132.011 148.000 C 132.357 148.000,132.843 147.797,133.092 147.548 C 133.705 146.935,137.378 145.626,139.673 145.202 C 140.704 145.012,141.874 144.685,142.273 144.474 C 142.673 144.264,144.080 143.967,145.400 143.815 C 146.720 143.662,148.790 143.297,150.000 143.003 C 153.360 142.186,248.296 142.152,251.542 142.966 M149.400 160.419 C 148.740 160.605,147.390 160.966,146.400 161.221 C 145.410 161.477,144.060 161.921,143.400 162.208 C 139.241 164.019,137.196 165.036,135.680 166.050 C 134.734 166.682,133.862 167.200,133.743 167.200 C 133.405 167.200,129.121 170.529,128.029 171.639 C 127.683 171.991,126.651 173.161,125.736 174.239 C 124.821 175.318,123.690 176.650,123.223 177.200 C 118.742 182.475,114.498 190.146,113.784 194.260 C 113.637 195.107,113.266 196.571,112.958 197.514 C 112.333 199.433,112.152 305.028,112.771 306.600 C 112.945 307.040,113.084 283.174,113.081 253.564 C 113.077 223.953,113.201 199.522,113.356 199.272 C 113.510 199.022,113.886 197.598,114.190 196.108 C 115.220 191.070,118.116 184.613,120.686 181.626 C 120.983 181.282,122.278 179.650,123.565 178.000 C 130.408 169.228,136.813 164.965,148.600 161.338 C 150.851 160.646,153.677 160.587,194.000 160.389 L 237.000 160.178 193.800 160.130 C 170.040 160.104,150.060 160.234,149.400 160.419 M166.000 227.400 C 166.550 227.714,167.270 227.971,167.600 227.970 C 167.930 227.969,167.594 227.706,166.854 227.384 C 165.151 226.645,164.694 226.653,166.000 227.400 M153.744 229.728 C 151.624 231.290,149.200 233.906,149.200 234.631 C 149.200 234.787,149.812 234.113,150.560 233.134 C 151.308 232.154,152.928 230.658,154.160 229.810 C 156.214 228.395,156.669 228.000,156.244 228.000 C 156.158 228.000,155.033 228.777,153.744 229.728 M168.433 228.130 C 169.530 228.989,172.389 230.706,172.193 230.388 C 171.902 229.918,168.969 228.000,168.541 228.000 C 168.390 228.000,168.342 228.059,168.433 228.130 M177.734 242.000 C 177.734 243.650,177.805 244.325,177.891 243.500 C 177.978 242.675,177.978 241.325,177.891 240.500 C 177.805 239.675,177.734 240.350,177.734 242.000 M253.320 241.600 C 253.320 242.810,253.395 243.305,253.487 242.700 C 253.578 242.095,253.578 241.105,253.487 240.500 C 253.395 239.895,253.320 240.390,253.320 241.600 M147.293 242.000 C 147.293 242.770,147.375 243.085,147.476 242.700 C 147.576 242.315,147.576 241.685,147.476 241.300 C 147.375 240.915,147.293 241.230,147.293 242.000 M150.400 251.325 C 150.400 251.394,150.985 251.979,151.700 252.625 L 153.000 253.800 151.825 252.500 C 150.730 251.288,150.400 251.016,150.400 251.325 M173.375 252.500 L 172.200 253.800 173.500 252.625 C 174.712 251.530,174.984 251.200,174.675 251.200 C 174.606 251.200,174.021 251.785,173.375 252.500 M161.505 257.483 C 162.002 257.579,162.722 257.575,163.105 257.475 C 163.487 257.375,163.080 257.296,162.200 257.301 C 161.320 257.305,161.007 257.387,161.505 257.483 M219.505 264.683 C 220.002 264.779,220.722 264.775,221.105 264.675 C 221.487 264.575,221.080 264.496,220.200 264.501 C 219.320 264.505,219.007 264.587,219.505 264.683 M184.600 265.457 C 186.637 267.264,187.387 267.791,186.602 266.863 C 186.166 266.348,185.447 265.741,185.004 265.514 C 184.562 265.287,184.380 265.262,184.600 265.457 M199.300 275.476 C 199.685 275.576,200.315 275.576,200.700 275.476 C 201.085 275.375,200.770 275.293,200.000 275.293 C 199.230 275.293,198.915 275.375,199.300 275.476 M112.951 328.800 C 112.951 331.330,113.016 332.365,113.096 331.100 C 113.175 329.835,113.175 327.765,113.096 326.500 C 113.016 325.235,112.951 326.270,112.951 328.800 M288.400 333.592 C 288.400 337.035,285.507 344.805,283.631 346.400 C 283.501 346.510,282.879 347.320,282.247 348.200 C 280.430 350.730,274.143 356.650,272.706 357.182 C 271.988 357.449,271.124 357.809,270.787 357.983 C 270.450 358.156,269.550 358.429,268.787 358.588 C 268.024 358.748,267.040 359.105,266.600 359.382 C 265.737 359.924,261.161 360.780,259.716 360.668 C 259.230 360.631,258.822 360.780,258.808 361.000 C 258.738 362.133,264.331 361.335,267.332 359.785 C 267.955 359.463,268.855 359.194,269.332 359.186 C 269.810 359.179,270.920 358.825,271.800 358.400 C 272.680 357.975,273.553 357.621,273.740 357.614 C 274.040 357.602,275.218 356.556,279.162 352.800 C 280.639 351.394,284.800 346.186,284.800 345.745 C 284.800 345.543,285.160 345.070,285.600 344.693 C 286.040 344.316,286.400 343.723,286.400 343.375 C 286.400 343.027,286.670 342.473,287.000 342.143 C 287.330 341.813,287.600 341.189,287.600 340.757 C 287.600 340.325,287.866 339.566,288.191 339.070 C 288.952 337.909,289.521 331.200,288.859 331.200 C 288.565 331.200,288.400 332.059,288.400 333.592 " stroke="none" fill="#78737e" fill-rule="evenodd"></path><path id="path4" d="M44.400 18.360 C 43.410 18.492,89.245 18.600,146.255 18.600 L 249.910 18.600 250.742 19.600 C 252.336 21.517,251.177 24.321,248.452 25.137 C 247.275 25.490,222.022 25.606,146.344 25.608 C 37.362 25.611,43.614 25.487,38.989 27.737 C 35.183 29.590,28.670 35.431,27.438 38.097 C 25.251 42.831,25.259 42.775,24.990 56.259 C 24.688 71.401,24.404 72.395,20.194 73.078 L 18.810 73.303 18.700 58.952 L 18.590 44.600 18.501 59.200 C 18.403 75.381,18.372 75.175,20.775 74.455 C 25.493 73.041,25.850 71.890,26.166 57.052 C 26.541 39.459,28.463 35.246,38.800 29.350 C 42.674 27.141,35.473 27.299,146.200 26.990 C 243.028 26.720,248.271 26.669,249.600 25.991 C 252.422 24.550,253.420 20.460,251.346 18.829 L 250.292 18.000 148.246 18.060 C 92.121 18.093,45.390 18.228,44.400 18.360 M40.800 19.206 C 40.470 19.404,39.210 20.021,38.000 20.578 C 36.790 21.135,36.073 21.593,36.406 21.595 C 36.739 21.598,37.684 21.240,38.504 20.800 C 39.325 20.360,40.223 19.994,40.499 19.987 C 40.774 19.980,41.349 19.710,41.776 19.387 C 42.647 18.729,41.846 18.580,40.800 19.206 M32.304 23.723 C 27.822 26.754,24.138 30.610,22.483 34.000 C 22.215 34.550,21.554 35.720,21.015 36.600 C 20.476 37.480,20.029 38.470,20.023 38.800 C 20.016 39.130,20.414 38.590,20.906 37.600 C 21.397 36.610,21.939 35.739,22.110 35.663 C 22.280 35.588,22.682 34.958,23.002 34.263 C 24.863 30.224,30.950 24.311,34.892 22.713 C 35.281 22.555,35.600 22.240,35.600 22.013 C 35.600 21.461,35.801 21.357,32.304 23.723 M19.261 41.331 C 18.964 42.340,18.805 43.398,18.907 43.683 C 19.136 44.326,20.093 40.972,19.924 40.118 C 19.856 39.776,19.557 40.322,19.261 41.331 M280.400 40.779 C 279.955 41.082,280.338 41.189,281.880 41.194 C 283.104 41.197,284.092 41.406,284.280 41.701 C 284.456 41.977,285.347 42.709,286.260 43.328 C 287.173 43.947,288.433 44.976,289.060 45.616 C 289.687 46.255,290.380 46.782,290.600 46.787 C 291.130 46.799,288.458 44.364,285.734 42.352 C 283.471 40.679,281.431 40.078,280.400 40.779 M278.809 42.379 C 278.497 43.132,278.429 44.000,278.629 44.692 C 278.911 45.671,278.978 45.544,279.210 43.600 C 279.523 40.971,279.465 40.795,278.809 42.379 M333.670 42.126 C 331.866 44.045,332.942 46.897,336.300 49.101 C 337.665 49.997,337.437 51.329,335.700 52.615 C 334.117 53.786,332.824 55.179,332.809 55.729 C 332.804 55.909,333.070 55.787,333.400 55.457 C 333.730 55.127,334.000 54.664,334.000 54.429 C 334.000 54.193,334.167 54.000,334.371 54.000 C 334.576 54.000,334.981 53.773,335.271 53.495 C 335.562 53.217,336.295 52.673,336.900 52.286 C 338.281 51.402,338.381 49.829,337.100 49.153 C 334.231 47.640,332.858 45.042,333.837 42.978 C 334.503 41.574,335.829 41.640,337.691 43.170 C 339.881 44.969,340.770 45.600,341.115 45.600 C 341.335 45.600,341.618 45.870,341.745 46.200 C 341.871 46.530,342.171 46.800,342.411 46.800 C 343.188 46.800,342.481 46.152,338.979 43.654 C 335.115 40.898,334.886 40.832,333.670 42.126 M281.142 48.176 C 283.711 50.893,283.725 50.747,280.600 54.059 C 279.170 55.575,278.000 57.174,278.000 57.613 C 278.000 58.896,279.721 61.600,280.537 61.600 C 280.765 61.600,280.573 61.248,280.111 60.818 C 278.033 58.882,278.478 56.576,281.486 53.695 C 283.237 52.017,283.638 51.405,283.456 50.681 C 283.237 49.809,279.895 46.000,279.349 46.000 C 279.203 46.000,280.010 46.979,281.142 48.176 M291.200 47.020 C 291.200 47.194,291.515 47.685,291.900 48.110 C 293.831 50.244,292.361 55.324,289.555 56.214 C 289.140 56.346,288.800 56.622,288.800 56.827 C 288.800 57.032,288.575 57.201,288.300 57.202 C 288.025 57.203,287.130 57.819,286.311 58.571 C 285.492 59.324,284.473 60.050,284.047 60.185 C 283.147 60.471,282.085 61.600,282.716 61.600 C 283.065 61.600,287.745 58.264,291.677 55.213 C 292.986 54.197,293.474 51.704,292.832 49.318 C 292.451 47.904,291.200 46.142,291.200 47.020 M343.200 47.133 C 343.200 47.347,343.830 47.893,344.600 48.347 C 346.549 49.497,346.654 51.969,344.800 53.064 C 344.140 53.454,343.600 53.914,343.600 54.086 C 343.600 54.259,343.421 54.400,343.203 54.400 C 342.650 54.400,337.600 58.071,337.600 58.473 C 337.600 58.653,337.349 58.800,337.043 58.800 C 336.736 58.800,336.382 59.070,336.255 59.400 C 335.819 60.537,334.472 60.073,333.741 58.533 C 333.358 57.726,332.969 57.294,332.875 57.574 C 332.655 58.236,334.096 60.163,334.936 60.328 C 335.456 60.430,338.468 58.385,341.838 55.641 C 342.078 55.445,342.798 55.011,343.438 54.677 C 346.053 53.307,347.281 50.674,346.094 48.981 C 345.581 48.249,343.200 46.729,343.200 47.133 M145.300 100.298 C 147.665 100.369,151.535 100.369,153.900 100.298 C 156.265 100.228,154.330 100.170,149.600 100.170 C 144.870 100.170,142.935 100.228,145.300 100.298 M382.598 247.400 C 382.598 328.360,382.644 361.420,382.700 320.867 C 382.756 280.315,382.756 214.075,382.700 173.667 C 382.644 133.260,382.598 166.440,382.598 247.400 M18.598 255.200 C 18.598 340.230,18.644 375.015,18.700 332.500 C 18.756 289.985,18.756 220.415,18.700 177.900 C 18.644 135.385,18.598 170.170,18.598 255.200 M146.800 142.317 C 144.835 142.812,144.464 143.006,145.280 143.110 C 145.874 143.187,146.774 143.013,147.280 142.725 C 148.510 142.023,250.366 141.730,253.200 142.420 C 255.124 142.888,257.938 143.319,256.600 142.940 C 256.160 142.816,255.547 142.508,255.239 142.257 C 254.222 141.430,150.093 141.487,146.800 142.317 M139.854 143.802 C 139.224 144.131,138.324 144.421,137.854 144.446 C 137.116 144.486,137.101 144.519,137.744 144.684 C 138.152 144.789,139.232 144.599,140.144 144.262 C 141.055 143.924,142.250 143.572,142.800 143.479 C 143.561 143.350,143.465 143.296,142.400 143.257 C 141.630 143.228,140.484 143.474,139.854 143.802 M259.200 143.622 C 261.784 144.230,264.731 145.135,265.543 145.569 C 266.722 146.200,267.514 146.095,266.569 145.433 C 266.123 145.121,265.048 144.737,264.180 144.580 C 263.311 144.422,262.114 144.047,261.520 143.747 C 260.926 143.446,259.846 143.221,259.120 143.246 L 257.800 143.292 259.200 143.622 M135.024 145.413 C 134.476 145.827,134.417 145.996,134.824 145.987 C 135.141 145.980,135.749 145.710,136.176 145.387 C 136.724 144.973,136.783 144.804,136.376 144.813 C 136.059 144.820,135.451 145.090,135.024 145.413 M132.189 146.546 C 131.755 146.846,130.953 147.232,130.408 147.402 C 129.486 147.690,127.608 148.867,126.581 149.800 C 126.339 150.020,125.434 150.541,124.571 150.959 C 123.707 151.376,122.730 151.868,122.400 152.053 C 122.070 152.237,121.215 152.652,120.500 152.974 C 119.785 153.296,119.200 153.748,119.200 153.980 C 119.200 154.211,119.035 154.400,118.833 154.400 C 118.034 154.400,111.123 160.993,108.200 164.544 C 107.320 165.613,106.285 166.778,105.900 167.132 C 105.515 167.487,105.200 167.925,105.200 168.105 C 105.200 168.433,103.618 170.824,103.152 171.200 C 103.016 171.310,102.331 172.480,101.630 173.800 C 100.929 175.120,100.186 176.371,99.978 176.580 C 99.770 176.789,99.607 177.329,99.615 177.780 C 99.624 178.312,99.985 177.897,100.642 176.600 C 105.389 167.226,115.984 155.562,122.600 152.427 C 123.700 151.906,125.410 150.936,126.400 150.272 C 127.390 149.608,129.550 148.376,131.200 147.534 C 132.850 146.692,133.925 146.003,133.589 146.002 C 133.253 146.001,132.623 146.246,132.189 146.546 M270.200 147.406 C 273.371 148.984,273.478 149.017,272.821 148.226 C 272.559 147.910,271.830 147.538,271.200 147.400 C 270.570 147.262,269.841 146.890,269.579 146.574 C 269.317 146.258,268.719 146.003,268.251 146.007 C 267.747 146.011,268.543 146.582,270.200 147.406 M275.242 150.135 C 276.951 151.434,278.424 152.315,280.330 153.181 C 280.842 153.413,281.501 153.827,281.794 154.102 C 282.088 154.376,283.110 155.216,284.064 155.970 C 287.077 158.347,293.789 165.419,295.630 168.156 C 296.603 169.603,297.455 170.626,297.522 170.428 C 297.866 169.414,285.601 155.600,284.356 155.600 C 284.187 155.600,283.470 155.071,282.762 154.424 C 282.054 153.777,280.377 152.703,279.037 152.037 C 277.697 151.372,276.077 150.371,275.438 149.814 C 274.799 149.256,274.098 148.800,273.880 148.800 C 273.663 148.800,274.276 149.401,275.242 150.135 M148.200 161.482 C 144.389 162.636,142.615 163.338,143.102 163.501 C 143.370 163.590,144.126 163.396,144.782 163.069 C 145.437 162.742,146.744 162.347,147.686 162.191 C 149.391 161.909,151.945 160.812,150.800 160.854 C 150.470 160.866,149.300 161.149,148.200 161.482 M155.038 163.334 L 157.560 165.869 178.646 166.134 C 190.243 166.280,210.436 166.400,223.519 166.400 L 247.306 166.400 248.738 167.285 C 252.156 169.398,253.113 172.536,250.949 174.542 L 249.808 175.600 225.804 175.655 C 179.251 175.761,152.034 176.192,149.600 176.862 C 145.857 177.892,136.976 182.497,134.881 184.494 C 131.680 187.545,128.478 192.238,127.167 195.800 C 127.005 196.240,126.721 196.960,126.536 197.400 C 126.351 197.840,126.110 222.770,126.000 252.800 C 125.777 313.716,125.981 309.659,123.064 311.050 C 120.596 312.227,117.831 310.536,117.349 307.555 C 117.029 305.576,116.811 305.314,114.988 304.717 L 113.400 304.198 113.186 297.199 L 112.971 290.200 112.891 297.200 C 112.796 305.484,112.886 306.000,114.414 306.000 C 115.384 306.000,115.628 306.253,116.238 307.900 C 118.240 313.298,122.437 314.458,125.489 310.457 L 126.800 308.738 126.856 293.469 C 127.099 227.805,127.476 199.383,128.133 197.200 C 130.309 189.973,135.229 184.775,143.800 180.648 C 144.460 180.331,145.125 179.944,145.279 179.790 C 145.432 179.635,146.782 179.044,148.279 178.475 L 151.000 177.440 199.718 177.298 C 246.416 177.162,248.509 177.125,250.198 176.401 C 254.245 174.666,254.500 170.002,250.707 167.109 C 247.902 164.969,249.439 165.042,202.200 164.809 C 178.000 164.690,157.930 164.454,157.600 164.284 C 157.270 164.114,156.493 163.260,155.874 162.387 C 155.022 161.186,154.477 160.800,153.632 160.800 C 152.559 160.800,152.613 160.897,155.038 163.334 M138.931 165.005 C 133.824 167.750,125.972 173.600,127.395 173.600 C 127.566 173.600,128.300 172.970,129.026 172.200 C 129.752 171.430,130.467 170.800,130.615 170.800 C 130.763 170.800,131.450 170.347,132.142 169.794 C 134.242 168.114,135.377 167.379,137.073 166.598 C 137.773 166.276,138.446 165.849,138.569 165.650 C 138.692 165.451,139.274 165.168,139.864 165.020 C 141.154 164.696,142.870 163.581,141.989 163.639 C 141.665 163.660,140.289 164.275,138.931 165.005 M298.138 171.931 C 298.502 172.334,298.800 172.800,298.800 172.968 C 298.800 173.136,299.160 173.731,299.600 174.291 C 300.040 174.850,300.400 175.181,300.400 175.025 C 300.400 174.415,298.299 171.200,297.900 171.200 C 297.667 171.200,297.774 171.529,298.138 171.931 M124.943 176.202 C 123.874 177.439,122.497 179.199,121.881 180.113 C 121.266 181.028,120.632 181.871,120.472 181.988 C 119.951 182.368,118.773 184.401,119.091 184.372 C 119.261 184.357,120.626 182.669,122.125 180.622 C 123.624 178.576,125.404 176.334,126.082 175.641 C 126.760 174.948,127.218 174.284,127.100 174.167 C 126.983 174.049,126.012 174.965,124.943 176.202 M300.466 175.844 C 303.939 183.117,304.400 184.199,304.400 185.076 C 304.400 185.491,304.754 186.814,305.186 188.015 C 305.855 189.877,305.973 190.021,305.986 188.989 C 305.994 188.323,305.757 187.423,305.459 186.989 C 305.162 186.555,304.795 185.406,304.644 184.437 C 304.494 183.467,304.128 182.207,303.831 181.637 C 303.535 181.066,302.821 179.575,302.245 178.323 C 301.669 177.071,300.995 175.920,300.747 175.767 C 300.499 175.614,300.373 175.649,300.466 175.844 M98.899 179.591 C 98.624 180.030,98.394 180.617,98.386 180.895 C 98.379 181.173,98.025 182.120,97.600 183.000 C 97.175 183.880,96.829 185.050,96.831 185.600 C 96.835 186.657,97.540 185.105,98.466 182.000 C 98.695 181.230,99.061 180.381,99.279 180.113 C 99.497 179.846,99.613 179.439,99.537 179.210 C 99.460 178.980,99.173 179.151,98.899 179.591 M164.570 182.265 C 160.892 184.101,161.106 189.813,164.932 191.906 C 166.646 192.844,177.450 192.775,179.852 191.811 C 184.320 190.017,184.463 184.536,180.105 182.100 C 178.719 181.325,166.187 181.458,164.570 182.265 M180.245 183.506 C 182.273 184.618,182.450 188.262,180.562 190.036 C 179.155 191.359,167.517 191.768,165.297 190.572 C 162.289 188.953,162.778 183.736,166.000 183.070 C 167.897 182.678,179.376 183.029,180.245 183.506 M117.253 187.221 C 115.837 189.987,115.750 190.306,116.600 189.600 C 116.930 189.326,117.200 188.830,117.200 188.498 C 117.200 188.166,117.581 187.279,118.046 186.526 C 118.511 185.774,118.805 185.071,118.699 184.965 C 118.593 184.859,117.942 185.874,117.253 187.221 M139.324 185.386 C 138.006 185.959,133.184 191.618,132.154 193.800 C 131.843 194.460,131.419 195.270,131.213 195.600 C 128.543 199.872,129.276 204.378,132.905 206.002 C 135.384 207.113,139.103 205.518,139.835 203.030 C 140.325 201.364,142.011 198.048,142.932 196.938 C 147.222 191.770,147.670 190.266,145.760 187.456 C 144.144 185.077,141.782 184.317,139.324 185.386 M143.836 187.255 C 146.035 189.264,145.604 192.132,142.611 195.400 C 141.195 196.946,139.200 200.402,139.200 201.308 C 139.200 202.094,137.442 204.344,136.489 204.778 C 132.384 206.648,129.589 201.472,132.127 196.699 C 136.737 188.029,140.957 184.626,143.836 187.255 M96.109 187.800 C 95.847 188.460,95.516 189.720,95.375 190.600 C 95.233 191.480,94.866 192.971,94.558 193.914 C 94.251 194.857,94.024 196.477,94.053 197.514 L 94.107 199.400 94.407 197.600 C 95.043 193.779,96.013 189.523,96.423 188.758 C 96.658 188.318,96.791 187.653,96.718 187.279 C 96.623 186.797,96.446 186.949,96.109 187.800 M115.275 191.875 C 114.379 194.481,114.333 195.499,115.205 193.438 C 115.662 192.360,115.982 191.223,115.917 190.913 C 115.853 190.603,115.564 191.036,115.275 191.875 M306.020 191.200 C 306.016 191.530,306.271 192.520,306.588 193.400 C 307.141 194.934,307.165 194.950,307.168 193.800 C 307.170 193.140,306.914 192.150,306.600 191.600 C 306.263 191.011,306.025 190.846,306.020 191.200 M307.314 197.000 C 307.317 198.100,307.395 198.503,307.487 197.895 C 307.579 197.286,307.577 196.386,307.482 195.895 C 307.387 195.403,307.311 195.900,307.314 197.000 M113.700 198.030 C 113.005 201.078,113.112 202.765,113.837 200.200 C 114.148 199.100,114.357 197.668,114.301 197.018 C 114.220 196.067,114.102 196.265,113.700 198.030 M307.709 267.887 C 307.761 314.570,307.918 336.642,308.193 336.366 C 308.692 335.868,308.463 201.011,307.962 199.800 C 307.780 199.360,307.666 229.999,307.709 267.887 M93.457 203.259 C 93.101 206.665,93.218 330.435,93.580 333.400 C 93.741 334.720,93.902 305.425,93.936 268.300 C 93.971 231.175,93.936 200.800,93.857 200.800 C 93.778 200.800,93.598 201.906,93.457 203.259 M112.970 212.800 C 112.970 217.530,113.028 219.465,113.098 217.100 C 113.169 214.735,113.169 210.865,113.098 208.500 C 113.028 206.135,112.970 208.070,112.970 212.800 M113.362 240.600 C 113.362 244.120,113.424 245.506,113.498 243.681 C 113.572 241.856,113.572 238.976,113.497 237.281 C 113.422 235.586,113.361 237.080,113.362 240.600 M277.476 316.449 C 276.429 317.500,275.972 318.466,275.418 320.800 C 274.184 326.003,265.884 336.400,262.965 336.400 C 262.799 336.400,262.379 336.634,262.031 336.920 C 261.684 337.205,260.410 337.854,259.200 338.361 C 253.468 340.762,252.170 341.736,251.725 343.970 C 249.504 355.108,269.142 348.616,277.251 335.532 C 278.433 333.624,280.205 330.763,281.190 329.174 C 286.274 320.967,285.992 316.059,280.392 315.308 C 279.005 315.122,278.666 315.255,277.476 316.449 M283.445 317.903 C 284.402 319.163,283.435 324.596,282.004 326.000 C 281.892 326.110,281.530 326.683,281.200 327.273 C 280.483 328.556,278.081 332.462,277.099 333.943 C 276.714 334.524,276.125 335.588,275.791 336.306 C 274.029 340.096,268.587 344.183,260.156 348.047 C 255.007 350.407,250.124 346.602,253.232 342.651 C 254.025 341.642,257.732 339.600,258.769 339.600 C 259.228 339.600,264.310 336.773,265.550 335.827 C 266.696 334.953,270.789 330.991,270.795 330.750 C 270.798 330.613,271.586 329.680,272.547 328.677 C 274.377 326.766,276.398 322.480,276.403 320.496 C 276.412 316.761,281.231 314.986,283.445 317.903 M287.089 333.900 C 283.372 342.282,274.894 350.586,264.480 356.047 C 259.492 358.662,258.185 361.239,262.239 360.464 C 264.145 360.100,264.158 360.088,262.700 360.045 C 260.278 359.973,260.922 358.991,264.732 356.945 C 265.904 356.315,267.524 355.404,268.332 354.919 C 269.139 354.435,270.070 353.906,270.400 353.744 C 273.374 352.285,283.600 342.657,283.600 341.315 C 283.600 341.032,283.747 340.800,283.926 340.800 C 284.105 340.800,284.563 340.215,284.942 339.500 C 286.434 336.691,286.708 336.327,286.987 336.779 C 287.140 337.027,287.154 337.988,287.019 338.915 C 286.777 340.567,286.788 340.556,287.573 338.400 C 288.969 334.565,288.544 330.618,287.089 333.900 M94.155 338.114 C 94.217 339.387,94.500 340.647,94.784 340.914 C 95.202 341.307,95.248 341.171,95.025 340.200 C 94.873 339.540,94.590 338.280,94.396 337.400 C 94.066 335.906,94.050 335.954,94.155 338.114 M307.200 339.013 C 307.200 340.010,306.930 341.472,306.600 342.262 C 305.766 344.258,305.802 345.260,306.664 344.030 C 307.313 343.103,307.995 337.200,307.453 337.200 C 307.314 337.200,307.200 338.016,307.200 339.013 M285.474 342.300 C 283.841 346.086,280.053 350.588,273.800 356.176 C 272.925 356.957,272.837 357.133,273.475 356.823 C 274.651 356.252,280.804 350.201,282.244 348.200 C 282.877 347.320,283.501 346.510,283.631 346.400 C 283.919 346.154,286.800 341.227,286.800 340.979 C 286.800 340.273,286.008 341.062,285.474 342.300 M95.420 343.151 C 95.622 344.866,96.800 347.272,96.800 345.969 C 96.800 345.634,96.626 345.186,96.413 344.973 C 96.200 344.760,95.843 343.869,95.620 342.993 L 95.214 341.400 95.420 343.151 M305.660 345.654 C 305.627 346.014,305.331 346.824,305.002 347.454 C 304.674 348.084,304.404 349.022,304.402 349.538 C 304.400 350.485,304.259 350.821,302.190 354.794 C 301.194 356.707,300.065 358.205,298.071 360.256 C 297.632 360.708,297.649 360.800,298.171 360.800 C 298.517 360.800,298.800 360.642,298.800 360.449 C 298.800 360.257,299.520 359.334,300.400 358.400 C 301.280 357.466,302.000 356.448,302.000 356.138 C 302.000 355.828,302.270 355.471,302.600 355.345 C 302.930 355.218,303.201 354.819,303.203 354.457 C 303.204 354.096,303.563 353.260,304.000 352.600 C 304.437 351.940,304.796 350.784,304.797 350.031 C 304.799 349.279,305.083 348.350,305.430 347.967 C 305.808 347.549,305.992 346.817,305.890 346.135 C 305.796 345.511,305.693 345.294,305.660 345.654 M96.800 347.477 C 96.800 347.953,97.051 348.593,97.357 348.900 C 97.663 349.206,98.002 349.804,98.110 350.228 C 98.278 350.886,98.314 350.897,98.354 350.299 C 98.379 349.913,98.040 348.925,97.600 348.104 C 96.973 346.935,96.800 346.799,96.800 347.477 M98.400 351.647 C 98.400 351.977,98.664 352.596,98.987 353.024 C 99.310 353.451,99.580 354.017,99.587 354.282 C 99.614 355.276,104.100 360.798,104.883 360.799 C 105.038 360.800,104.318 359.885,103.283 358.767 C 101.505 356.847,99.615 353.901,99.587 353.006 C 99.565 352.291,98.400 350.957,98.400 351.647 M269.776 357.787 C 269.160 358.254,269.128 358.377,269.620 358.387 C 269.961 358.394,270.411 358.237,270.620 358.039 C 270.829 357.840,271.360 357.591,271.800 357.485 C 272.445 357.330,272.402 357.284,271.576 357.246 C 271.014 357.221,270.204 357.464,269.776 357.787 M265.606 359.223 C 264.463 359.860,264.369 360.000,265.083 360.000 C 265.561 360.000,266.062 359.823,266.196 359.606 C 266.330 359.390,267.016 359.046,267.720 358.842 C 268.841 358.518,268.876 358.471,268.000 358.459 C 267.450 358.452,266.373 358.796,265.606 359.223 M105.200 361.546 C 105.200 361.971,110.289 367.148,112.530 369.002 C 113.592 369.881,114.748 370.869,115.099 371.197 C 115.768 371.823,116.725 372.426,118.400 373.276 C 118.950 373.555,119.544 374.012,119.720 374.292 C 119.896 374.571,120.441 374.800,120.931 374.800 C 121.421 374.800,122.130 375.160,122.507 375.600 C 122.884 376.040,123.567 376.400,124.025 376.400 C 124.483 376.400,125.127 376.670,125.457 377.000 C 125.787 377.330,126.435 377.600,126.897 377.600 C 127.359 377.600,128.034 377.869,128.398 378.198 C 128.761 378.527,129.944 378.917,131.025 379.065 C 132.107 379.214,133.232 379.575,133.525 379.868 C 133.833 380.176,134.846 380.380,135.929 380.354 C 136.958 380.328,137.440 380.233,137.000 380.143 C 126.799 378.054,116.712 372.693,109.500 365.528 C 107.135 363.179,105.200 361.387,105.200 361.546 M294.704 364.132 C 293.226 365.713,290.920 367.815,289.580 368.803 C 288.240 369.791,286.932 370.790,286.672 371.022 C 286.412 371.255,285.930 371.578,285.600 371.741 C 285.270 371.905,284.280 372.475,283.400 373.010 C 282.520 373.544,281.350 374.170,280.800 374.401 C 280.250 374.632,279.260 375.075,278.600 375.385 C 277.940 375.695,277.130 376.058,276.800 376.190 C 275.022 376.905,274.171 377.588,275.051 377.594 C 275.519 377.597,276.110 377.349,276.365 377.042 C 276.620 376.735,277.434 376.370,278.174 376.231 C 278.914 376.092,279.740 375.714,280.009 375.389 C 280.278 375.065,280.825 374.800,281.225 374.800 C 281.625 374.800,282.075 374.602,282.225 374.359 C 282.375 374.117,283.106 373.664,283.849 373.354 C 284.592 373.043,285.200 372.612,285.200 372.395 C 285.200 372.178,285.532 372.000,285.938 372.000 C 286.344 372.000,287.002 371.640,287.400 371.200 C 287.798 370.760,288.366 370.400,288.662 370.400 C 288.958 370.400,289.200 370.130,289.200 369.800 C 289.200 369.470,289.461 369.200,289.780 369.200 C 290.099 369.200,290.504 368.972,290.680 368.694 C 290.856 368.416,291.940 367.414,293.088 366.467 C 295.143 364.773,297.842 361.709,297.544 361.410 C 297.460 361.326,296.182 362.551,294.704 364.132 M271.800 378.179 C 270.653 378.684,268.633 379.270,265.600 379.980 L 264.200 380.308 266.071 380.354 C 267.163 380.381,268.167 380.176,268.481 379.862 C 268.776 379.567,269.888 379.227,270.950 379.107 C 272.013 378.987,273.172 378.599,273.527 378.244 C 274.346 377.425,273.579 377.396,271.800 378.179 M139.917 381.115 C 141.925 381.812,259.929 381.618,261.800 380.914 C 262.698 380.576,247.331 380.480,200.717 380.531 C 149.367 380.588,138.695 380.690,139.917 381.115 M382.394 408.900 C 382.391 409.615,382.129 410.920,381.812 411.800 C 381.495 412.680,381.239 414.030,381.245 414.800 C 381.254 416.140,381.280 416.114,381.851 414.200 C 382.509 411.997,383.040 407.600,382.648 407.600 C 382.512 407.600,382.397 408.185,382.394 408.900 M18.839 410.800 C 18.824 411.130,19.067 412.210,19.379 413.200 C 19.880 414.789,19.948 414.860,19.955 413.800 C 19.964 412.585,18.887 409.693,18.839 410.800 M20.003 416.076 C 20.001 416.448,20.193 416.872,20.428 417.017 C 20.663 417.163,21.012 417.668,21.203 418.141 C 21.410 418.654,21.558 418.758,21.572 418.400 C 21.585 418.070,21.237 417.260,20.800 416.600 C 20.258 415.782,20.004 415.615,20.003 416.076 M380.138 417.017 C 379.766 417.987,380.285 418.162,380.782 417.234 C 381.091 416.656,381.097 416.400,380.802 416.400 C 380.567 416.400,380.268 416.678,380.138 417.017 M379.093 419.308 C 378.712 419.778,378.400 420.467,378.400 420.839 C 378.400 421.210,378.130 421.618,377.800 421.745 C 377.470 421.871,377.200 422.211,377.200 422.499 C 377.200 422.787,376.885 423.315,376.500 423.672 C 376.115 424.030,375.369 424.927,374.841 425.665 C 374.314 426.404,372.739 427.904,371.341 428.999 C 369.944 430.094,368.800 431.127,368.800 431.295 C 368.800 431.463,368.524 431.600,368.187 431.600 C 367.851 431.600,367.476 431.859,367.354 432.176 C 367.233 432.492,366.623 432.863,366.000 433.000 C 365.377 433.137,364.767 433.508,364.646 433.824 C 364.524 434.141,364.087 434.400,363.674 434.400 C 363.261 434.400,362.507 434.760,362.000 435.200 C 360.811 436.231,361.161 436.211,363.288 435.127 C 369.854 431.778,376.053 425.963,379.339 420.070 C 380.210 418.507,380.077 418.095,379.093 419.308 M22.429 420.658 C 24.999 425.698,30.532 430.987,36.400 434.013 C 39.816 435.774,40.325 436.000,40.862 435.994 C 41.158 435.991,40.590 435.609,39.600 435.144 C 38.610 434.680,37.530 434.145,37.200 433.956 C 36.870 433.767,36.060 433.343,35.400 433.014 C 33.565 432.100,31.771 430.854,30.340 429.500 C 29.933 429.115,29.518 428.800,29.418 428.800 C 29.181 428.800,27.200 426.819,27.200 426.582 C 27.200 426.482,26.885 426.071,26.500 425.670 C 25.227 424.343,24.068 422.719,23.129 420.948 C 22.619 419.987,22.085 419.200,21.944 419.200 C 21.802 419.200,22.021 419.856,22.429 420.658 M43.200 436.621 C 45.467 437.335,46.589 437.313,45.000 436.586 C 44.340 436.283,43.260 436.040,42.600 436.045 C 41.540 436.052,41.611 436.120,43.200 436.621 M357.612 436.384 C 356.496 437.090,357.527 437.255,359.261 436.647 L 361.000 436.038 359.600 436.025 C 358.830 436.018,357.935 436.180,357.612 436.384 M124.700 437.500 C 167.215 437.556,236.785 437.556,279.300 437.500 C 321.815 437.444,287.030 437.398,202.000 437.398 C 116.970 437.398,82.185 437.444,124.700 437.500 " stroke="none" fill="#e3d599" fill-rule="evenodd"></path></g></svg>